# Blender v2.76 (sub 0) OBJ File: 'proj.blend'
# www.blender.org
mtllib Home.mtl
g Home_Plane
v 0.000000 0.000000 10.000000
v 16.000000 0.000000 10.000000
v 0.000000 0.000000 0.000000
v 16.000000 0.000000 0.000000
v 0.000000 3.000000 10.000000
v 0.000000 3.000000 0.000000
v 16.000000 3.000000 0.000000
v 0.000000 -0.500000 10.000000
v 16.000000 -0.500000 10.000000
v 16.000000 -0.500000 0.000000
v -0.500000 0.000000 10.000000
v -0.500000 3.000000 10.000000
v -0.500000 3.000000 0.000000
v -0.500000 -0.500000 10.000000
v -0.500000 0.000000 0.000000
v 0.000000 3.000000 -0.500000
v 16.000000 3.000000 -0.500000
v -0.500000 3.000000 -0.500000
v -0.500000 0.000000 7.500000
v -0.500000 3.000000 7.500000
v -0.500000 3.000000 6.000000
v -0.500000 0.000000 6.000000
v 0.000000 3.000000 7.500000
v 0.000000 0.000000 7.500000
v 0.000000 3.000000 6.000000
v 0.000000 0.000000 6.000000
v 0.000000 4.000000 7.500000
v 0.000000 4.000000 10.000000
v 16.000000 4.000000 0.000000
v 0.000000 4.000000 0.000000
v -0.500000 4.000000 7.500000
v -0.500000 4.000000 10.000000
v -0.500000 4.000000 0.000000
v 16.000000 4.000000 -0.500000
v 0.000000 4.000000 -0.500000
v -0.500000 4.000000 -0.500000
v -0.500000 4.000000 6.000000
v 0.000000 4.000000 6.000000
v -10.500000 0.000000 10.000000
v -10.500000 0.000000 0.000000
v -10.500000 0.000000 7.500000
v -10.500000 0.000000 6.000000
v -10.500000 3.000000 0.000000
v -10.500000 3.000000 -0.500000
v -11.000000 3.000000 0.000000
v -11.000000 3.000000 -0.500000
v -11.000000 0.000000 10.000000
v -10.500000 3.000000 10.000000
v -11.000000 3.000000 10.000000
vt 2.999500 2.999500
vt -1.999500 2.999500
vt -1.999500 0.000101
vt 2.999499 -0.749751
vt -1.999500 -0.749748
vt -1.999500 -1.999498
vt 2.999500 0.000100
vt 2.999499 -1.999500
vt 0.000000 0.000000
vt 5.250000 0.500000
vt 5.250000 2.000000
vt 0.250000 2.000000
vt -4.750000 0.750000
vt -4.750000 0.500000
vt 0.250000 0.500000
vt 0.250000 0.750000
vt 0.000000 0.750000
vt 0.000000 0.500000
vt 1.500000 0.500000
vt -0.500000 2.000000
vt 0.750000 0.500000
vt 0.000000 -4.500000
vt 0.250000 -4.500000
vt -0.500000 0.500000
vt 4.500000 0.500000
vt 4.500000 2.000000
vt 0.000000 2.000000
vt -3.428085 0.253717
vt -3.428085 0.957022
vt -6.999074 0.957022
vt 7.284877 0.253717
vt 7.284877 0.957022
vt -1.285492 0.957022
vt -3.428085 0.019282
vt -1.285492 0.019282
vt 7.284877 0.019282
vt 7.999074 0.019282
vt -1.285492 0.253717
vt -6.999074 0.253717
vt -6.999074 0.019282
vt 7.999074 0.253717
vt 8.500000 0.500000
vt 8.500000 2.000000
vt 0.500000 2.000000
vt 1.750000 0.000000
vt 1.750000 0.500000
vt 0.500000 0.500000
vt 0.500000 0.000000
vt 0.500000 -1.500000
vt 0.250000 -1.500000
vt 1.750000 2.000000
vt 3.500000 0.500000
vt 3.500000 2.000000
vt 8.500000 0.000000
vt 3.500000 0.000000
vt 1.500000 0.000000
vt 0.250000 1.500000
vt 0.500000 1.500000
vt 0.500000 0.750000
vt 0.250000 0.000000
vt 0.750000 0.000000
vt 0.500000 2.500000
vt 0.500000 1.750000
vt 0.250000 -0.250000
vt 0.500000 -0.250000
vt 8.500000 5.500000
vt 0.500000 5.500000
vn 0.000000 1.000000 0.000000
vn 1.000000 0.000000 0.000000
vn 0.000000 0.000000 -1.000000
vn 0.000000 0.000000 1.000000
vn -1.000000 0.000000 0.000000
vn 0.000000 -1.000000 0.000000
usemtl Toon_Grass
s off
f 15/1/1 40/2/1 42/3/1
f 19/4/1 41/5/1 39/6/1
f 22/7/1 42/3/1 41/5/1
f 22/7/1 15/1/1 42/3/1
f 11/8/1 19/4/1 39/6/1
f 19/4/1 22/7/1 41/5/1
usemtl Toon_Grass_NONE
f 2/9/2 9/9/2 10/9/2
f 18/9/3 36/9/3 35/9/3
f 17/9/2 34/9/2 29/9/2
f 16/9/3 35/9/3 34/9/3
f 4/9/2 2/9/2 10/9/2
f 16/9/3 18/9/3 35/9/3
f 7/9/2 17/9/2 29/9/2
f 17/9/3 16/9/3 34/9/3
usemtl Material
f 15/10/4 13/11/4 43/12/4
f 44/13/1 43/14/1 13/15/1
f 44/16/1 46/17/1 45/18/1
f 42/19/2 48/20/2 41/21/2
f 49/22/1 48/23/1 43/15/1
f 40/15/4 15/10/4 43/12/4
f 18/16/1 44/13/1 13/15/1
f 43/15/1 44/16/1 45/18/1
f 39/24/2 41/21/2 48/20/2
f 42/19/2 40/25/2 43/26/2
f 43/26/2 48/20/2 42/19/2
f 45/18/1 49/22/1 43/15/1
usemtl Black
f 39/15/4 48/12/4 49/27/4
f 47/18/4 39/15/4 49/27/4
usemtl Black_NONE
f 1/9/4 8/9/4 9/9/4
f 1/9/4 11/9/4 14/9/4
f 5/9/4 12/9/4 11/9/4
f 30/9/1 37/9/1 38/9/1
f 30/9/1 35/9/1 36/9/1
f 29/9/1 34/9/1 35/9/1
f 5/9/4 28/9/4 32/9/4
f 2/9/4 1/9/4 9/9/4
f 8/9/4 1/9/4 14/9/4
f 1/9/4 5/9/4 11/9/4
f 32/9/1 28/9/1 27/9/1
f 27/9/1 38/9/1 37/9/1
f 30/9/1 33/9/1 37/9/1
f 37/9/1 31/9/1 27/9/1
f 32/9/1 27/9/1 31/9/1
f 33/9/1 30/9/1 36/9/1
f 30/9/1 29/9/1 35/9/1
f 12/9/4 5/9/4 32/9/4
usemtl Plank
f 20/28/5 19/29/5 11/30/5
f 13/31/5 15/32/5 22/33/5
f 20/28/5 31/34/5 37/35/5
f 13/31/5 33/36/5 36/37/5
f 21/38/5 37/35/5 33/36/5
f 12/39/5 32/40/5 31/34/5
f 12/39/5 20/28/5 11/30/5
f 21/38/5 13/31/5 22/33/5
f 21/38/5 20/28/5 37/35/5
f 18/41/5 13/31/5 36/37/5
f 13/31/5 21/38/5 33/36/5
f 20/28/5 12/39/5 31/34/5
usemtl Wallpaper
f 4/42/4 7/43/4 6/44/4
f 23/45/2 27/46/2 28/47/2
f 23/48/3 24/49/3 19/50/3
f 24/46/2 23/51/2 5/44/2
f 3/52/2 6/53/2 25/44/2
f 7/54/4 29/42/4 30/47/4
f 6/55/2 30/52/2 38/47/2
f 25/56/2 38/19/2 27/21/2
f 21/57/6 25/58/6 23/59/6
f 25/44/4 21/12/4 22/15/4
f 3/47/4 4/42/4 6/44/4
f 5/48/2 23/45/2 28/47/2
f 20/60/3 23/48/3 19/50/3
f 1/47/2 24/46/2 5/44/2
f 26/47/2 3/52/2 25/44/2
f 6/48/4 7/54/4 30/47/4
f 25/48/2 6/55/2 38/47/2
f 23/61/2 25/56/2 27/21/2
f 20/16/6 21/57/6 23/59/6
f 26/47/4 25/44/4 22/15/4
usemtl Lajota
f 2/42/1 26/62/1 24/63/1
f 22/15/1 19/64/1 24/65/1
f 24/63/1 1/47/1 2/42/1
f 2/42/1 4/66/1 26/62/1
f 3/67/1 26/62/1 4/66/1
f 26/47/1 22/15/1 24/65/1
l 3 15
