# Blender v2.76 (sub 0) OBJ File: 'proj.blend'
# www.blender.org
mtllib Bench.mtl
g Bench_Cube.001
v 0.000000 0.000000 1.400000
v 0.000000 1.400000 1.400000
v 0.000000 0.000000 0.000000
v 0.000000 1.400000 0.000000
v 1.400000 0.000000 1.400000
v 1.400000 1.400000 1.400000
v 1.400000 0.000000 0.000000
v 1.400000 1.400000 0.000000
v 0.000000 0.000000 3.500000
v 0.000000 1.400000 3.500000
v 1.400000 1.400000 3.500000
v 1.400000 0.000000 3.500000
v 3.500000 1.400000 0.000000
v 3.500000 0.000000 0.000000
v 3.500000 1.400000 1.400000
v 3.500000 0.000000 1.400000
v 0.000000 1.260000 1.400000
v 0.000000 1.260000 0.000000
v 1.400000 1.260000 0.000000
v 1.400000 1.260000 1.400000
v 0.000000 1.260000 3.500000
v 1.400000 1.260000 3.500000
v 3.500000 1.260000 0.000000
v 3.500000 1.260000 1.400000
v 0.070000 1.260000 3.570000
v 0.070000 1.400000 3.570000
v 1.470000 1.400000 3.570000
v 1.470000 1.400000 1.470000
v 3.570000 1.400000 0.070000
v 3.570000 1.400000 1.470000
v 1.470000 1.260000 1.470000
v 1.470000 1.260000 3.570000
v 3.570000 1.260000 0.070000
v 3.570000 1.260000 1.470000
v 1.120000 1.400000 1.820000
v 0.280000 1.400000 1.820000
v 1.120000 1.400000 3.080000
v 0.280000 1.400000 3.080000
v 1.120000 1.120000 1.820000
v 0.280000 1.120000 1.820000
v 1.120000 1.120000 3.080000
v 0.280000 1.120000 3.080000
v 1.017293 1.059709 1.974060
v 0.382707 1.059709 1.974060
v 1.017293 1.059709 2.925940
v 0.382707 1.059709 2.925940
v 0.280000 1.286337 3.080000
v 0.280000 1.286337 1.820000
v 1.120000 1.286337 1.820000
v 1.120000 1.286337 3.080000
v 0.063180 1.376573 2.539766
v 0.063180 1.556105 2.539766
v 0.063180 1.376573 2.360234
v 0.063180 1.556105 2.360234
v 0.242712 1.376573 2.539766
v 0.242712 1.556105 2.539766
v 0.242712 1.376573 2.360234
v 0.242712 1.556105 2.360234
v 0.080260 1.762525 2.522686
v 0.080260 1.762525 2.377314
v 0.225631 1.762525 2.377314
v 0.225631 1.762525 2.522686
v 0.712336 1.620862 2.380959
v 0.712336 1.620862 2.519041
v 0.639927 1.713717 2.394096
v 0.639927 1.713717 2.505904
vt -2.092936 0.965253
vt -2.092937 0.031796
vt -1.055762 0.031796
vt 2.055762 0.965254
vt 2.055762 0.031796
vt 3.092937 0.031797
vt 0.500000 0.031796
vt 0.500000 0.965254
vt -1.055762 0.965253
vt 3.092937 0.965254
vt 0.000000 0.000000
vt 0.500000 1.500000
vt -0.500000 1.500000
vt -0.500000 0.500000
vt 1.500000 0.000000
vt 1.300000 0.300000
vt 0.700000 0.300000
vt 0.500000 -0.500000
vt 2.000000 -0.500000
vt 2.000000 0.500000
vt 0.500000 -1.000000
vt 0.550000 -1.050000
vt 0.550000 0.450000
vt 0.500000 0.400000
vt 0.550000 0.400000
vt 0.550000 0.500000
vt 0.450000 0.500000
vt -1.050000 0.500000
vt -1.050000 0.400000
vt 2.050000 0.400000
vt 2.050000 0.500000
vt -0.550000 0.500000
vt -0.550000 0.400000
vt 0.450000 0.400000
vt -0.450000 0.500000
vt -0.450000 0.400000
vt 0.000000 0.500000
vt -1.500000 0.500000
vt -1.450000 0.450000
vt 0.500000 0.500000
vt 0.500000 0.000000
vt -0.500000 0.000000
vt -0.450000 -0.050000
vt 0.000000 -0.500000
vt 0.050000 -0.550000
vt 0.050000 0.450000
vt -0.300000 0.200000
vt 0.300000 0.200000
vt 0.300000 1.200000
vt 0.300000 0.300000
vt 0.700000 -0.700000
vt 0.700000 0.200000
vt 1.300000 0.500000
vt 1.300000 0.418812
vt 0.700000 0.418812
vt 1.200000 0.500000
vt 1.200000 0.418812
vt 0.300000 0.418812
vt -0.300000 0.500000
vt -0.300000 0.418812
vt -0.700000 0.500000
vt -0.700000 0.418812
vt 0.200000 0.418812
vt 0.550000 -0.050000
vt 0.700000 0.500000
vt 0.300000 0.500000
vt 0.200000 0.500000
vn 0.000000 0.000000 1.000000
vn 1.000000 0.000000 0.000000
vn -1.000000 0.000000 0.000000
vn 0.000000 0.000000 -1.000000
vn 0.000000 -1.000000 0.000000
vn 0.000000 1.000000 0.000000
vn -0.707100 0.000000 0.707100
vn 0.707100 0.000000 -0.707100
vn -0.506200 0.862400 0.000000
vn 0.000000 0.931200 -0.364400
vn 0.506200 0.862400 0.000000
vn 0.000000 0.931200 0.364400
vn -0.996600 0.082500 0.000000
vn 0.000000 0.082500 0.996600
vn 0.000000 0.082500 -0.996600
vn 0.050500 0.086500 -0.995000
vn 0.788600 0.614900 0.000000
vn 0.136600 -0.990600 0.000000
vn 0.022000 0.156800 0.987400
vn 0.117000 0.993100 0.000000
vn 0.022000 0.156800 -0.987400
vn 0.050500 0.086500 0.995000
usemtl Wood
s off
f 21/1/1 9/2/1 12/3/1
f 24/4/2 16/5/2 14/6/2
f 5/7/1 16/5/1 24/4/1
f 20/8/2 22/9/2 12/3/2
f 22/9/1 21/1/1 12/3/1
f 23/10/2 24/4/2 14/6/2
f 20/8/1 5/7/1 24/4/1
f 5/7/2 20/8/2 12/3/2
usemtl Wood_NONE
f 18/11/3 3/11/3 1/11/3
f 19/11/4 7/11/4 3/11/4
f 7/11/5 14/11/5 16/11/5
f 1/11/3 9/11/3 21/11/3
f 3/11/5 7/11/5 5/11/5
f 5/11/5 12/11/5 9/11/5
f 24/11/5 34/11/5 31/11/5
f 8/11/4 13/11/4 23/11/4
f 19/11/4 23/11/4 14/11/4
f 22/11/5 20/11/5 31/11/5
f 17/11/3 21/11/3 10/11/3
f 8/11/4 19/11/4 18/11/4
f 4/11/3 18/11/3 17/11/3
f 22/11/5 32/11/5 25/11/5
f 24/11/5 23/11/5 33/11/5
f 17/11/3 18/11/3 1/11/3
f 18/11/4 19/11/4 3/11/4
f 5/11/5 7/11/5 16/11/5
f 17/11/3 1/11/3 21/11/3
f 1/11/5 3/11/5 5/11/5
f 1/11/5 5/11/5 9/11/5
f 20/11/5 24/11/5 31/11/5
f 19/11/4 8/11/4 23/11/4
f 7/11/4 19/11/4 14/11/4
f 32/11/5 22/11/5 31/11/5
f 2/11/3 17/11/3 10/11/3
f 4/11/4 8/11/4 18/11/4
f 2/11/3 4/11/3 17/11/3
f 21/11/5 22/11/5 25/11/5
f 34/11/5 24/11/5 33/11/5
usemtl Marble
f 8/12/6 4/13/6 2/14/6
f 11/15/6 37/16/6 38/17/6
f 6/18/6 15/19/6 13/20/6
f 11/21/6 27/22/6 28/23/6
f 21/24/7 25/25/7 26/26/7
f 28/27/2 27/28/2 32/29/2
f 31/25/1 34/30/1 30/31/1
f 30/32/2 34/33/2 33/34/2
f 26/35/1 25/36/1 32/25/1
f 15/37/6 6/38/6 28/39/6
f 13/40/8 29/27/8 33/34/8
f 11/41/6 10/42/6 26/43/6
f 15/44/6 30/45/6 29/46/6
f 2/14/6 36/47/6 35/48/6
f 6/12/6 35/49/6 37/50/6
f 10/21/6 38/51/6 36/52/6
f 37/53/4 50/54/4 47/55/4
f 35/56/3 49/57/3 50/58/3
f 36/59/1 48/60/1 49/58/1
f 38/61/2 47/62/2 48/63/2
f 6/40/6 8/12/6 2/14/6
f 10/41/6 11/15/6 38/17/6
f 8/40/6 6/18/6 13/20/6
f 6/40/6 11/21/6 28/23/6
f 10/40/7 21/24/7 26/26/7
f 31/34/2 28/27/2 32/29/2
f 28/26/1 31/25/1 30/31/1
f 29/27/2 30/32/2 33/34/2
f 27/26/1 26/35/1 32/25/1
f 30/46/6 15/37/6 28/39/6
f 23/24/8 13/40/8 33/34/8
f 27/64/6 11/41/6 26/43/6
f 13/37/6 15/44/6 29/46/6
f 6/40/6 2/14/6 35/48/6
f 11/41/6 6/12/6 37/50/6
f 2/40/6 10/21/6 36/52/6
f 38/65/4 37/53/4 47/55/4
f 37/66/3 35/56/3 50/58/3
f 35/66/1 36/59/1 49/58/1
f 36/67/2 38/61/2 48/63/2
usemtl Metal
f 47/11/2 42/11/2 40/11/2
f 39/11/9 43/11/9 45/11/9
f 48/11/1 40/11/1 39/11/1
f 49/11/3 39/11/3 41/11/3
f 50/11/4 41/11/4 42/11/4
f 44/11/6 46/11/6 45/11/6
f 41/11/10 45/11/10 46/11/10
f 40/11/11 42/11/11 46/11/11
f 40/11/12 44/11/12 43/11/12
f 54/11/3 53/11/3 51/11/3
f 58/11/4 57/11/4 53/11/4
f 56/11/2 55/11/2 57/11/2
f 52/11/1 51/11/1 55/11/1
f 53/11/5 57/11/5 55/11/5
f 52/11/13 59/11/13 60/11/13
f 61/11/6 60/11/6 59/11/6
f 56/11/14 62/11/14 59/11/14
f 54/11/15 60/11/15 61/11/15
f 58/11/16 61/11/16 65/11/16
f 64/11/17 63/11/17 65/11/17
f 58/11/18 63/11/18 64/11/18
f 56/11/19 64/11/19 66/11/19
f 62/11/20 66/11/20 65/11/20
f 48/11/2 47/11/2 40/11/2
f 41/11/9 39/11/9 45/11/9
f 49/11/1 48/11/1 39/11/1
f 50/11/3 49/11/3 41/11/3
f 47/11/4 50/11/4 42/11/4
f 43/11/6 44/11/6 45/11/6
f 42/11/10 41/11/10 46/11/10
f 44/11/11 40/11/11 46/11/11
f 39/11/12 40/11/12 43/11/12
f 52/11/3 54/11/3 51/11/3
f 54/11/4 58/11/4 53/11/4
f 58/11/2 56/11/2 57/11/2
f 56/11/1 52/11/1 55/11/1
f 51/11/5 53/11/5 55/11/5
f 54/11/13 52/11/13 60/11/13
f 62/11/6 61/11/6 59/11/6
f 52/11/14 56/11/14 59/11/14
f 58/11/15 54/11/15 61/11/15
f 63/11/21 58/11/21 65/11/21
f 66/11/17 64/11/17 65/11/17
f 56/11/18 58/11/18 64/11/18
f 62/11/22 56/11/22 66/11/22
f 61/11/20 62/11/20 65/11/20
