# Blender v2.76 (sub 0) OBJ File: 'quarium.blend'
# www.blender.org
mtllib quarium.mtl
g Cube_Cube.001
v -1.857143 0.000000 0.771429
v -1.857143 2.000000 0.771429
v -1.857143 0.000000 -0.828571
v -1.857143 2.000000 -0.828571
v 2.142857 0.000000 0.771429
v 2.142857 0.000000 -0.828571
v 2.142857 2.000000 -0.828571
vt 0.999913 0.000087
vt 0.999913 0.752897
vt 0.000087 0.752897
vt 0.000087 0.000087
vt 0.154104 0.104110
vt 0.400951 0.104110
vt 0.400951 0.959720
vt 0.961968 0.104110
vt 0.961968 0.959720
vt 0.154104 0.959720
vn 0.000000 1.000000 0.000000
vn 1.000000 0.000000 0.000000
vn 0.000000 0.000000 1.000000
usemtl aquarium_foot
s off
f 5/1/1 6/2/1 3/3/1
f 1/4/1 5/1/1 3/3/1
usemtl aquarium_back
f 1/5/2 3/6/2 4/7/2
f 3/6/3 6/8/3 7/9/3
f 2/10/2 1/5/2 4/7/2
f 4/7/3 3/6/3 7/9/3
