# Blender v2.76 (sub 0) OBJ File: 'bluePatron.blend'
# www.blender.org
mtllib blue_feet.mtl
g Cube.003_Cube.006
v -0.040667 -0.163972 0.040667
v -0.040667 0.072784 0.040667
v -0.040667 -0.163972 -0.040667
v -0.040667 0.040667 -0.040667
v 0.040667 -0.163972 0.040667
v 0.040667 0.072784 0.040667
v 0.040667 -0.163972 -0.040667
v 0.040667 0.040667 -0.040667
v -0.040667 -0.220895 0.040667
v -0.040667 -0.220895 -0.040667
v 0.040667 -0.220895 0.040667
v 0.040667 -0.220895 -0.040667
v 0.206888 -0.172271 0.028808
v 0.206888 -0.172271 -0.028808
v 0.206888 -0.212595 0.028808
v 0.206888 -0.212595 -0.028808
v 0.090992 -0.187394 0.157772
v 0.109113 -0.187394 0.095039
v 0.090992 -0.233094 0.157772
v 0.109113 -0.233094 0.095039
v 0.126111 -0.173825 -0.118495
v 0.092466 -0.173825 -0.159674
v 0.126111 -0.211042 -0.118495
v 0.092466 -0.211042 -0.159674
vt 0.529628 0.075797
vt 0.529628 0.180354
vt 0.488668 0.180354
vt 0.413460 0.181120
vt 0.413460 0.285678
vt 0.372526 0.285678
vt 0.570409 0.284911
vt 0.529628 0.301321
vt 0.570562 0.059387
vt 0.570562 0.180354
vt 0.570409 0.240802
vt 0.570996 0.181538
vt 0.597740 0.180354
vt 0.484035 0.314177
vt 0.443119 0.313604
vt 0.443119 0.270964
vt 0.372526 0.150178
vt 0.403053 0.122472
vt 0.430349 0.153414
vt 0.627474 0.095862
vt 0.599229 0.100832
vt 0.604797 0.063377
vt 0.570562 0.144477
vt 0.574742 0.059387
vt 0.595049 0.059387
vt 0.529628 0.209438
vt 0.488668 0.209438
vt 0.570409 0.271699
vt 0.590716 0.271699
vt 0.590716 0.301009
vt 0.454312 0.181120
vt 0.448321 0.266154
vt 0.419382 0.266154
vt 0.488668 0.294529
vt 0.492848 0.209438
vt 0.513155 0.209438
vt 0.469332 0.070222
vt 0.488668 0.092141
vt 0.593577 0.144477
vt 0.593577 0.177254
vt 0.474416 0.150986
vt 0.488668 0.181026
vt 0.457250 0.212506
vt 0.484035 0.181120
vt 0.484035 0.270964
vt 0.626276 0.183126
vt 0.626276 0.248520
vt 0.603366 0.246294
vt 0.612319 0.163821
vt 0.593577 0.163821
vt 0.597740 0.314334
vt 0.602702 0.248520
vt 0.621444 0.248520
vt 0.382450 0.059387
vt 0.413460 0.311198
vt 0.418422 0.266154
vt 0.437165 0.266154
vt 0.488668 0.059387
vt 0.372526 0.181120
vt 0.570409 0.180354
vt 0.529628 0.059387
vt 0.597740 0.271699
vt 0.484035 0.271537
vt 0.399822 0.181120
vt 0.627474 0.059387
vt 0.599229 0.144477
vt 0.570409 0.301009
vt 0.517335 0.294529
vt 0.570562 0.177254
vt 0.454312 0.256953
vt 0.612319 0.144477
vt 0.626406 0.314334
vt 0.408898 0.063592
vt 0.442127 0.311198
vn -1.000000 0.000000 0.000000
vn 0.000000 0.000000 -1.000000
vn 1.000000 0.000000 0.000000
vn 0.000000 0.000000 1.000000
vn 0.065900 0.996400 -0.053800
vn 0.000000 0.930100 -0.367300
vn 0.000000 -1.000000 0.000000
vn 0.622000 0.000000 -0.783000
vn 0.071200 0.000000 0.997500
vn 0.049900 0.998800 0.000000
vn 0.071200 0.000000 -0.997500
vn 0.049900 -0.998800 0.000000
vn 0.960700 0.000000 0.277500
vn -0.143300 -0.988800 -0.041400
vn 0.000000 0.980600 0.196100
vn -0.664600 0.000000 0.747200
vn 0.774400 0.000000 -0.632700
vn -0.666400 0.000000 -0.745500
vn 0.000000 -0.996600 -0.082500
vn 0.673400 0.000000 0.739300
vn 0.000000 0.996600 -0.082500
vn 0.000000 -0.994600 -0.103600
vn 0.267300 0.960500 0.077200
vn -0.666400 0.000000 -0.745600
vn 0.065900 -0.996400 -0.053800
usemtl Black
s off
f 4/1/1 3/2/1 1/3/1
f 8/4/2 7/5/2 3/6/2
f 8/7/3 6/8/3 5/2/3
f 2/9/4 1/10/4 5/2/4
f 7/11/5 21/12/5 22/13/5
f 8/14/6 4/15/6 2/16/6
f 10/17/7 12/18/7 11/19/7
f 11/20/8 5/21/8 18/22/8
f 11/23/9 15/24/9 13/25/9
f 3/2/1 10/26/1 9/27/1
f 13/28/3 15/29/3 16/30/3
f 5/31/10 13/32/10 14/33/10
f 7/34/11 14/35/11 16/36/11
f 12/18/12 16/37/12 15/38/12
f 17/23/13 19/39/13 20/40/13
f 11/19/14 20/41/14 19/42/14
f 5/43/15 1/44/15 17/45/15
f 9/46/16 19/47/16 17/48/16
f 21/49/17 23/50/17 24/39/17
f 3/51/18 22/52/18 24/53/18
f 12/18/19 10/17/19 24/54/19
f 12/55/20 23/56/20 21/57/20
f 2/58/1 4/1/1 1/3/1
f 4/59/2 8/4/2 3/6/2
f 7/60/3 8/7/3 5/2/3
f 6/61/4 2/9/4 5/2/4
f 3/62/21 7/11/21 22/13/21
f 6/63/6 8/14/6 2/16/6
f 9/64/7 10/17/7 11/19/7
f 20/65/8 11/20/8 18/22/8
f 5/66/9 11/23/9 13/25/9
f 1/3/1 3/2/1 9/27/1
f 14/67/3 13/28/3 16/30/3
f 7/4/10 5/31/10 14/33/10
f 12/68/11 7/34/11 16/36/11
f 11/19/12 12/18/12 15/38/12
f 18/69/13 17/23/13 20/40/13
f 9/64/22 11/19/22 19/42/22
f 18/70/23 5/43/23 17/45/23
f 1/13/16 9/46/16 17/48/16
f 22/71/17 21/49/17 24/39/17
f 10/72/24 3/51/24 24/53/24
f 23/73/25 12/18/25 24/54/25
f 7/74/20 12/55/20 21/57/20
