# Blender v2.76 (sub 0) OBJ File: 'Mage.blend'
# www.blender.org
mtllib mage_upperlegsN.mtl
g Cube.006_Cube.010
v -0.103760 -0.619102 -0.124149
v -0.129060 0.208159 -0.151147
v -0.103760 -0.619102 0.097300
v -0.129060 0.208159 0.182470
v 0.103760 -0.619102 -0.124149
v 0.129060 0.208159 -0.151147
v 0.103760 -0.619102 0.097300
v 0.129060 0.208159 0.182470
v 0.000000 0.256895 0.211279
v 0.000000 -0.658284 0.120462
v 0.000000 0.256895 -0.179956
v 0.000000 -0.658284 -0.147311
v -0.147419 -0.024825 -0.170738
v -0.147419 -0.024825 0.202061
v 0.147419 -0.024825 0.202061
v 0.147419 -0.024825 -0.170738
v 0.000000 -0.024825 -0.203645
v 0.000000 -0.024825 0.234969
v -0.147020 0.240580 -0.013424
v -0.118199 -0.645168 -0.013424
v 0.147020 0.240580 -0.013424
v 0.118199 -0.645168 -0.013424
v 0.000000 0.258012 -0.013424
v 0.000000 -0.689803 -0.013424
v 0.167934 -0.024825 -0.013424
v -0.167934 -0.024825 -0.013424
vt 0.056415 0.444109
vt 0.048763 0.542241
vt 0.032386 0.536672
vt 0.158887 0.503139
vt 0.165929 0.402137
vt 0.181208 0.409361
vt 0.112769 0.500269
vt 0.105118 0.402137
vt 0.122217 0.404805
vt 0.203512 0.502401
vt 0.210553 0.402137
vt 0.225816 0.409546
vt 0.082383 0.563540
vt 0.068308 0.564020
vt 0.071274 0.546336
vt 0.046103 0.577746
vt 0.023889 0.575656
vt 0.029315 0.545050
vt 0.049224 0.542241
vt 0.068308 0.548801
vt 0.083514 0.542241
vt 0.100441 0.545342
vt 0.194419 0.407133
vt 0.149810 0.406964
vt 0.136818 0.538102
vt 0.136599 0.501195
vt 0.181396 0.537779
vt 0.181208 0.500688
vt 0.225816 0.504116
vt 0.220449 0.540780
vt 0.136599 0.498202
vt 0.136599 0.535304
vt 0.181208 0.504599
vt 0.175872 0.541083
vt 0.023889 0.441292
vt 0.029812 0.404704
vt 0.080244 0.409074
vt 0.080244 0.446176
vt 0.086167 0.539674
vt 0.080244 0.503086
vt 0.101534 0.580470
vt 0.084837 0.584717
vt 0.063675 0.601519
vt 0.043790 0.604064
vt 0.024682 0.597768
vt 0.072367 0.581464
vt 0.088741 0.407706
vt 0.065862 0.539573
vt 0.068308 0.579930
vt 0.101534 0.562887
vt 0.155793 0.547510
vt 0.200381 0.546993
vt 0.116143 0.542241
vt 0.059788 0.402137
vn -0.985900 -0.079000 0.147200
vn 0.275700 -0.171000 0.945900
vn 0.985900 -0.079000 -0.147200
vn -0.247800 -0.085800 -0.965000
vn 0.341400 -0.904000 0.257300
vn -0.116000 0.978200 0.172500
vn 0.354200 0.935200 0.004700
vn -0.386200 -0.897900 0.211400
vn 0.247800 -0.085800 -0.965000
vn -0.275700 -0.171000 0.945900
vn -0.216800 0.098800 0.971200
vn 0.216800 0.098800 -0.971200
vn -0.216800 0.098800 -0.971200
vn 0.987700 0.088700 -0.128800
vn 0.216800 0.098800 0.971200
vn -0.991800 0.086100 0.094400
vn -0.987700 0.088700 -0.128800
vn 0.991800 0.086100 0.094400
vn -0.386200 -0.897900 -0.211400
vn 0.354500 0.935000 -0.006300
vn -0.114300 0.963600 -0.241700
vn 0.341400 -0.904000 -0.257300
vn 0.985900 -0.079000 0.147200
vn -0.985900 -0.079000 -0.147200
vn -0.991500 -0.089500 0.094400
vn 0.214100 -0.184800 0.959200
vn 0.988200 -0.082700 -0.128900
vn -0.216900 -0.092100 -0.971800
vn 0.386200 -0.897900 0.211400
vn -0.354200 0.935200 0.004700
vn 0.116000 0.978200 0.172500
vn -0.341400 -0.904000 0.257300
vn 0.216900 -0.092100 -0.971800
vn -0.214100 -0.184800 0.959200
vn -0.246300 0.081200 0.965800
vn 0.246300 0.081200 -0.965800
vn -0.246300 0.081200 -0.965800
vn 0.986100 0.077700 -0.146900
vn 0.246300 0.081200 0.965800
vn -0.991500 0.078100 0.103800
vn -0.986100 0.077700 -0.146900
vn 0.991500 0.078100 0.103800
vn -0.341400 -0.904000 -0.257300
vn 0.114300 0.963600 -0.241700
vn -0.354500 0.935000 -0.006300
vn 0.386200 -0.897900 -0.211400
vn 0.991500 -0.089500 0.094400
vn -0.988200 -0.082700 -0.128900
usemtl Mage
s off
f 26/1/1 20/2/1 3/3/1
f 18/4/2 10/5/2 7/6/2
f 25/7/3 22/8/3 5/9/3
f 17/10/4 12/11/4 1/12/4
f 24/13/5 22/14/5 7/15/5
f 23/16/6 19/17/6 4/18/6
f 23/16/7 9/19/7 8/20/7
f 24/13/8 10/21/8 3/22/8
f 5/23/9 12/11/9 17/10/9
f 3/24/10 10/5/10 18/4/10
f 4/25/11 14/26/11 18/4/11
f 6/27/12 16/28/12 17/10/12
f 17/10/13 13/29/13 2/30/13
f 25/7/14 16/31/14 6/32/14
f 18/4/15 15/33/15 8/34/15
f 26/1/16 14/35/16 4/36/16
f 2/37/17 13/38/17 26/1/17
f 8/39/18 15/40/18 25/7/18
f 1/41/19 12/42/19 24/13/19
f 6/43/20 11/44/20 23/16/20
f 2/45/21 19/17/21 23/16/21
f 5/46/22 22/14/22 24/13/22
f 7/47/23 22/8/23 25/7/23
f 1/48/24 20/2/24 26/1/24
f 14/35/25 26/1/25 3/3/25
f 15/33/26 18/4/26 7/6/26
f 16/31/27 25/7/27 5/9/27
f 13/29/28 17/10/28 1/12/28
f 10/21/29 24/13/29 7/15/29
f 9/19/30 23/16/30 4/18/30
f 21/49/31 23/16/31 8/20/31
f 20/50/32 24/13/32 3/22/32
f 16/28/33 5/23/33 17/10/33
f 14/26/34 3/24/34 18/4/34
f 9/51/35 4/25/35 18/4/35
f 11/52/36 6/27/36 17/10/36
f 11/52/37 17/10/37 2/30/37
f 21/53/38 25/7/38 6/32/38
f 9/51/39 18/4/39 8/34/39
f 19/54/40 26/1/40 4/36/40
f 19/54/41 2/37/41 26/1/41
f 21/53/42 8/39/42 25/7/42
f 20/50/43 1/41/43 24/13/43
f 21/49/44 6/43/44 23/16/44
f 11/44/45 2/45/45 23/16/45
f 12/42/46 5/46/46 24/13/46
f 15/40/47 7/47/47 25/7/47
f 13/38/48 1/48/48 26/1/48
