# Blender v2.76 (sub 0) OBJ File: 'Mage.blend'
# www.blender.org
mtllib mage_upperlegsP.mtl
g Cube.002_Cube.003
v -0.103760 -0.619102 0.124149
v -0.129060 0.208159 0.151147
v -0.103760 -0.619102 -0.097300
v -0.129060 0.208159 -0.182470
v 0.103760 -0.619102 0.124149
v 0.129060 0.208159 0.151147
v 0.103760 -0.619102 -0.097300
v 0.129060 0.208159 -0.182470
v 0.000000 0.256895 -0.211279
v 0.000000 -0.658284 -0.120462
v 0.000000 0.256895 0.179956
v 0.000000 -0.658284 0.147311
v -0.147419 -0.024825 0.170738
v -0.147419 -0.024825 -0.202061
v 0.147419 -0.024825 -0.202061
v 0.147419 -0.024825 0.170738
v 0.000000 -0.024825 0.203645
v 0.000000 -0.024825 -0.234969
v -0.147020 0.240580 0.013424
v -0.118199 -0.645168 0.013424
v 0.147020 0.240580 0.013424
v 0.118199 -0.645168 0.013424
v 0.000000 0.258012 0.013424
v 0.000000 -0.689803 0.013424
v 0.167934 -0.024825 0.013424
v -0.167934 -0.024825 0.013424
vt 0.340889 0.462135
vt 0.297688 0.465876
vt 0.308974 0.339189
vt 0.476997 0.465946
vt 0.447393 0.463365
vt 0.464941 0.338204
vt 0.415742 0.387542
vt 0.447393 0.390286
vt 0.428291 0.514340
vt 0.536270 0.464967
vt 0.506645 0.462691
vt 0.524192 0.338428
vt 0.375381 0.546174
vt 0.378641 0.574302
vt 0.362078 0.569981
vt 0.327193 0.552841
vt 0.331338 0.599999
vt 0.304895 0.596268
vt 0.356687 0.591286
vt 0.400819 0.568661
vt 0.545622 0.331792
vt 0.565895 0.341633
vt 0.486351 0.331792
vt 0.506645 0.341387
vt 0.499557 0.516345
vt 0.472888 0.524882
vt 0.558766 0.515944
vt 0.532111 0.524195
vt 0.506895 0.511957
vt 0.447393 0.341006
vt 0.447684 0.512386
vt 0.305555 0.514475
vt 0.372541 0.508670
vt 0.345370 0.517884
vt 0.380408 0.335201
vt 0.420223 0.331792
vt 0.399366 0.522003
vt 0.400819 0.545307
vt 0.350533 0.521264
vt 0.356687 0.549940
vt 0.297688 0.555616
vt 0.298740 0.526247
vt 0.356687 0.546811
vt 0.360626 0.523323
vt 0.405580 0.517884
vt 0.383827 0.510487
vt 0.330727 0.331792
vt 0.353438 0.335336
vt 0.565895 0.467245
vt 0.506645 0.467887
vt 0.372541 0.459390
vt 0.372541 0.383800
vt 0.376884 0.517884
vt 0.324120 0.517884
vn -0.991500 -0.089500 -0.094400
vn 0.214100 -0.184800 -0.959200
vn 0.988200 -0.082700 0.128900
vn -0.216900 -0.092100 0.971800
vn 0.386200 -0.897900 -0.211400
vn -0.354200 0.935200 -0.004700
vn 0.354200 0.935200 -0.004700
vn -0.386200 -0.897900 -0.211400
vn 0.247800 -0.085800 0.965000
vn -0.275700 -0.171000 -0.945900
vn -0.246300 0.081200 -0.965800
vn 0.246300 0.081200 0.965800
vn -0.216800 0.098800 0.971200
vn 0.987700 0.088700 0.128800
vn 0.216800 0.098800 -0.971200
vn -0.991800 0.086100 -0.094400
vn -0.986100 0.077700 0.146900
vn 0.991500 0.078100 -0.103800
vn -0.341400 -0.904000 0.257300
vn 0.114300 0.963600 0.241700
vn -0.114300 0.963600 0.241700
vn 0.341400 -0.904000 0.257300
vn 0.985900 -0.079000 -0.147200
vn -0.985900 -0.079000 0.147200
vn -0.985900 -0.079000 -0.147200
vn 0.275700 -0.171000 -0.945900
vn 0.985900 -0.079000 0.147200
vn -0.247800 -0.085800 0.965000
vn 0.341400 -0.904000 -0.257300
vn -0.116000 0.978200 -0.172500
vn 0.116000 0.978200 -0.172500
vn -0.341400 -0.904000 -0.257300
vn 0.216900 -0.092100 0.971800
vn -0.214100 -0.184800 -0.959200
vn -0.216800 0.098800 -0.971200
vn 0.216800 0.098800 0.971200
vn -0.246300 0.081200 0.965800
vn 0.986100 0.077700 0.146900
vn 0.246300 0.081200 -0.965800
vn -0.991500 0.078100 -0.103800
vn -0.987700 0.088700 0.128800
vn 0.991800 0.086100 -0.094400
vn -0.386200 -0.897900 0.211400
vn 0.354500 0.935000 0.006300
vn -0.354500 0.935000 0.006300
vn 0.386200 -0.897900 0.211400
vn 0.991500 -0.089500 -0.094400
vn -0.988200 -0.082700 0.128900
usemtl Mage
s off
f 26/1/1 14/2/1 3/3/1
f 18/4/2 15/5/2 7/6/2
f 25/7/3 16/8/3 5/9/3
f 17/10/4 13/11/4 1/12/4
f 24/13/5 10/14/5 7/15/5
f 23/16/6 9/17/6 4/18/6
f 8/19/7 9/17/7 23/16/7
f 3/20/8 10/14/8 24/13/8
f 17/10/9 12/21/9 5/22/9
f 18/4/10 10/23/10 3/24/10
f 4/25/11 9/26/11 18/4/11
f 6/27/12 11/28/12 17/10/12
f 2/29/13 13/11/13 17/10/13
f 6/30/14 16/8/14 25/7/14
f 8/31/15 15/5/15 18/4/15
f 4/32/16 14/2/16 26/1/16
f 2/33/17 19/34/17 26/1/17
f 8/35/18 21/36/18 25/7/18
f 1/37/19 20/38/19 24/13/19
f 6/39/20 21/40/20 23/16/20
f 23/16/21 19/41/21 2/42/21
f 24/13/22 22/43/22 5/44/22
f 25/7/23 22/45/23 7/46/23
f 26/1/24 20/47/24 1/48/24
f 20/47/25 26/1/25 3/3/25
f 10/23/26 18/4/26 7/6/26
f 22/45/27 25/7/27 5/9/27
f 12/21/28 17/10/28 1/12/28
f 22/43/29 24/13/29 7/15/29
f 19/41/30 23/16/30 4/18/30
f 21/40/31 8/19/31 23/16/31
f 20/38/32 3/20/32 24/13/32
f 16/49/33 17/10/33 5/22/33
f 14/50/34 18/4/34 3/24/34
f 14/50/35 4/25/35 18/4/35
f 16/49/36 6/27/36 17/10/36
f 11/28/37 2/29/37 17/10/37
f 21/36/38 6/30/38 25/7/38
f 9/26/39 8/31/39 18/4/39
f 19/34/40 4/32/40 26/1/40
f 13/51/41 2/33/41 26/1/41
f 15/52/42 8/35/42 25/7/42
f 12/53/43 1/37/43 24/13/43
f 11/54/44 6/39/44 23/16/44
f 11/54/45 23/16/45 2/42/45
f 12/53/46 24/13/46 5/44/46
f 15/52/47 25/7/47 7/46/47
f 13/51/48 26/1/48 1/48/48
