# Blender v2.76 (sub 0) OBJ File: 'Mage.blend'
# www.blender.org
mtllib mage_body.mtl
g Cube_Cube.001
v -0.175883 0.085715 0.149542
v -0.126189 0.456516 0.165035
v -0.175883 0.085715 -0.149542
v -0.126189 0.456516 -0.165035
v 0.146940 0.085715 0.141054
v 0.126189 0.456516 0.152176
v 0.146940 0.085715 -0.141054
v 0.126189 0.456516 -0.152176
v -0.146223 0.473181 0.000000
v -0.171947 0.015511 0.000000
v 0.146223 0.473181 0.000000
v 0.173351 0.015511 0.000000
v 0.000000 0.469410 -0.251093
v -0.014181 0.031051 -0.265112
v 0.000000 0.469410 0.251093
v -0.014181 0.031051 0.265112
v 0.000000 0.506295 0.000000
v -0.524835 -1.183776 0.000000
v -0.147464 0.272471 0.168693
v -0.147464 0.272471 -0.168693
v 0.273724 0.272471 -0.139566
v 0.273724 0.272471 0.139566
v 0.228072 0.231144 0.000000
v -0.146901 0.231144 0.000000
v 0.036318 0.239238 0.309742
v 0.036318 0.239238 -0.309742
v -0.417173 -0.758921 -0.000000
v -0.364356 -0.686699 0.266215
v -0.164063 -0.742607 -0.400140
v -0.364356 -0.686699 -0.266215
v 0.189221 -0.759789 -0.000000
v 0.116154 -0.684969 -0.313890
v -0.164063 -0.742607 0.400140
v 0.116154 -0.684969 0.313890
v -0.451081 -1.183463 0.432940
v -0.162354 -1.183776 -0.535473
v -0.451081 -1.183463 -0.432940
v 0.215199 -1.183776 0.000000
v 0.111543 -1.183776 -0.471961
v -0.162354 -1.183776 0.535473
v 0.111543 -1.183776 0.471961
v -0.430408 -1.000572 0.000000
v -0.279164 -0.516112 0.170633
v -0.291546 -0.496720 -0.000000
v 0.131547 -0.495205 -0.254743
v 0.181286 -0.495205 -0.000000
v -0.091620 -0.500674 0.348675
v -0.091620 -0.500674 -0.348675
v -0.279164 -0.516112 -0.170633
v 0.131547 -0.495205 0.254743
v -0.473402 -1.183776 0.000000
v -0.408891 -1.183672 0.388016
v -0.159827 -1.183776 -0.440325
v -0.408891 -1.183672 -0.388016
v 0.153326 -1.183776 0.000000
v 0.067974 -1.183776 -0.388098
v -0.159827 -1.183776 0.440325
v 0.067974 -1.183776 0.388098
v -0.343306 -0.900394 0.328770
v -0.158733 -0.985459 -0.432047
v -0.343306 -0.900394 -0.328770
v 0.153326 -1.000572 0.000000
v 0.068088 -0.938956 -0.388098
v -0.158733 -0.985459 0.432047
v 0.068088 -0.938956 0.388098
v -0.121934 -1.061091 0.000000
vt 0.776510 0.256879
vt 0.791764 0.252380
vt 0.790560 0.270967
vt 0.669948 0.256653
vt 0.685461 0.252997
vt 0.685325 0.271539
vt 0.698184 0.257129
vt 0.710906 0.252997
vt 0.711042 0.271539
vt 0.834035 0.380298
vt 0.832104 0.362084
vt 0.849083 0.356909
vt 0.897404 0.330387
vt 0.915265 0.327123
vt 0.916096 0.346308
vt 0.855298 0.425046
vt 0.852518 0.400577
vt 0.864881 0.407467
vt 0.868518 0.423312
vt 0.868518 0.439634
vt 0.846699 0.303697
vt 0.826525 0.302464
vt 0.821804 0.284221
vt 0.698184 0.278387
vt 0.777131 0.278134
vt 0.763309 0.271890
vt 0.763137 0.331869
vt 0.778636 0.329690
vt 0.779440 0.357221
vt 0.845539 0.441376
vt 0.842055 0.426783
vt 0.842185 0.411715
vt 0.674961 0.328588
vt 0.698184 0.328506
vt 0.698184 0.354465
vt 0.726420 0.256653
vt 0.722351 0.277172
vt 0.884741 0.253785
vt 0.904084 0.256951
vt 0.899789 0.277175
vt 0.898464 0.234254
vt 0.857011 0.400577
vt 0.847758 0.399830
vt 0.853378 0.377133
vt 0.775828 0.233507
vt 0.761024 0.253421
vt 0.698184 0.233507
vt 0.834883 0.398420
vt 0.907716 0.233507
vt 0.921513 0.250109
vt 0.790901 0.234251
vt 0.842586 0.279052
vt 0.820102 0.233507
vt 0.893292 0.355032
vt 0.898506 0.399310
vt 0.870807 0.400577
vt 0.847800 0.234773
vt 0.870807 0.237609
vt 0.726798 0.347241
vt 0.741207 0.396212
vt 0.698184 0.396040
vt 0.872509 0.349863
vt 0.721406 0.328588
vt 0.794232 0.330816
vt 0.803465 0.348494
vt 0.865390 0.287776
vt 0.655160 0.454259
vt 0.660719 0.453239
vt 0.674329 0.489393
vt 0.721653 0.442062
vt 0.721653 0.485178
vt 0.717175 0.481525
vt 0.680888 0.396212
vt 0.708400 0.401377
vt 0.705297 0.406420
vt 0.697280 0.499860
vt 0.695596 0.490693
vt 0.820102 0.397460
vt 0.669570 0.347241
vt 0.780694 0.400132
vt 0.741207 0.400132
vt 0.921513 0.396474
vt 0.712056 0.235176
vt 0.864559 0.306961
vt 0.877231 0.331619
vt 0.911275 0.269320
vt 0.869633 0.491982
vt 0.869641 0.469038
vt 0.887511 0.469310
vt 0.842055 0.476780
vt 0.820102 0.476780
vt 0.824224 0.438679
vt 0.892586 0.446279
vt 0.870422 0.446279
vt 0.874708 0.423608
vt 0.793253 0.476319
vt 0.793144 0.438226
vt 0.809908 0.438226
vt 0.717032 0.442909
vt 0.671697 0.498227
vt 0.657250 0.406873
vt 0.662448 0.414272
vt 0.682117 0.405463
vt 0.768747 0.442349
vt 0.773905 0.400132
vt 0.793144 0.409160
vt 0.793144 0.448192
vt 0.777785 0.483546
vt 0.742297 0.469080
vt 0.741207 0.435754
vt 0.755307 0.406066
vt 0.893701 0.400577
vt 0.892578 0.423335
vt 0.868518 0.446279
vt 0.893701 0.453813
vt 0.793253 0.400132
vt 0.819173 0.405949
vt 0.842055 0.400577
vt 0.840651 0.438679
vt 0.674016 0.277173
vt 0.858052 0.449517
vt 0.754954 0.350137
vt 0.882809 0.272000
vt 0.885589 0.235664
vt 0.870807 0.383975
vt 0.760827 0.235270
vt 0.684311 0.235176
vt 0.655160 0.396212
vt 0.860569 0.364763
vt 0.891797 0.491982
vt 0.819173 0.470503
vt 0.756807 0.482942
vt 0.868518 0.408111
vt 0.820102 0.400577
vn -0.987100 0.154400 0.041100
vn 0.573000 -0.383200 -0.724500
vn 0.822500 -0.559200 -0.103500
vn -0.580400 0.004800 0.814300
vn 0.370500 0.248900 -0.894900
vn -0.196300 0.970100 -0.142500
vn -0.219200 0.967700 0.124300
vn -0.576600 0.599200 0.555400
vn 0.927400 -0.235300 -0.290800
vn -0.990100 0.115000 -0.080100
vn -0.896000 0.429300 0.113800
vn 0.218900 0.966400 0.134600
vn 0.210200 0.967300 -0.142100
vn 0.981000 0.029400 -0.191500
vn 0.643800 -0.306500 0.701100
vn -0.611100 -0.021400 -0.791200
vn -0.592600 0.109800 -0.798000
vn 0.609200 0.284700 0.740100
vn -1.000000 0.002800 -0.004000
vn 0.878100 0.296900 0.375200
vn -0.567200 0.081900 0.819500
vn 0.511000 0.356000 -0.782400
vn -0.984500 0.116400 -0.131300
vn -0.449700 0.353800 0.820200
vn -0.321300 0.276600 -0.905700
vn 0.216400 0.287100 0.933100
vn 0.975000 0.058800 0.214100
vn -0.465100 0.315200 -0.827200
vn 0.973500 -0.007800 0.228500
vn -0.882500 0.467800 -0.048200
vn 0.268800 0.122700 0.955300
vn 0.000000 -1.000000 -0.000000
vn -0.003500 -1.000000 -0.001300
vn -0.002000 -1.000000 0.002700
vn -0.000400 -1.000000 0.000000
vn -0.967600 0.213900 -0.134000
vn 0.975300 0.059800 -0.212800
vn -0.956400 0.242400 0.162800
vn 0.225900 0.292400 -0.929200
vn 0.774700 0.609400 0.168700
vn 0.384600 0.088400 0.918800
vn -0.980900 0.164700 0.103200
vn 0.983700 0.009100 0.179700
vn -0.682200 0.209400 -0.700500
vn 0.981400 0.015200 -0.191600
vn -0.969300 0.226300 0.096100
vn -0.549100 0.123200 0.826600
vn 0.573000 0.142800 -0.807100
vn -0.223300 -0.039400 -0.974000
vn -0.976700 0.000500 -0.214600
vn -0.190200 0.000100 0.981700
vn 0.961100 -0.225500 -0.159700
vn 0.000000 -1.000000 0.000300
vn 0.231900 -0.954600 -0.186900
vn 0.210500 -0.957300 0.198200
vn -0.181700 -0.926200 0.330400
vn -0.467600 -0.876600 -0.113600
vn 0.205300 -0.041900 0.977800
vn 0.371500 -0.271700 -0.887800
vn 0.950800 -0.256500 0.173800
vn -0.976700 0.000000 0.214800
vn -0.990100 0.115000 0.080100
vn 0.643800 -0.306500 -0.701100
vn 0.927400 -0.235300 0.290800
vn -0.611100 -0.021400 0.791200
vn 0.268800 0.122700 -0.955300
vn -0.219200 0.967700 -0.124300
vn -0.196300 0.970100 0.142500
vn -0.465100 0.315200 0.827200
vn 0.822500 -0.559200 0.103500
vn -0.987100 0.154400 -0.041100
vn -0.882500 0.467800 0.048200
vn 0.210200 0.967300 0.142100
vn 0.218900 0.966400 -0.134600
vn 0.973500 -0.007800 -0.228500
vn 0.573000 -0.383200 0.724500
vn -0.580400 0.004800 -0.814300
vn -0.567200 0.081900 -0.819500
vn 0.511000 0.356000 0.782400
vn -0.984500 0.116400 0.131300
vn 0.774700 0.609400 -0.168700
vn -0.592600 0.109800 0.798000
vn 0.609200 0.284700 -0.740100
vn -1.000000 0.002800 0.004000
vn -0.321300 0.276600 0.905700
vn -0.449700 0.353800 -0.820200
vn 0.225900 0.292400 0.929200
vn 0.975300 0.059800 0.212800
vn -0.576600 0.599200 -0.555400
vn 0.981000 0.029400 0.191500
vn -0.896000 0.429300 -0.113800
vn 0.370500 0.248900 0.894900
vn 0.000000 -1.000000 -0.000300
vn -0.002000 -1.000000 -0.002700
vn -0.956400 0.242400 -0.162800
vn 0.975000 0.058800 -0.214100
vn -0.967600 0.213900 0.134000
vn 0.216400 0.287100 -0.933100
vn 0.878100 0.296900 -0.375200
vn 0.573000 0.142800 0.807100
vn -0.969300 0.226300 -0.096100
vn 0.981400 0.015200 0.191600
vn -0.549100 0.123200 -0.826600
vn 0.983700 0.009100 -0.179700
vn -0.980900 0.164700 -0.103200
vn -0.682200 0.209400 0.700500
vn 0.384600 0.088400 -0.918800
vn -0.190200 0.000100 -0.981700
vn -0.976700 0.000000 -0.214800
vn -0.223300 -0.039400 0.974000
vn 0.950800 -0.256500 -0.173800
vn -0.003500 -1.000000 0.001300
vn 0.210500 -0.957300 -0.198200
vn 0.231900 -0.954600 0.186900
vn -0.467600 -0.876600 0.113600
vn -0.181700 -0.926200 -0.330400
vn 0.371500 -0.271700 0.887800
vn 0.205300 -0.041900 -0.977800
vn 0.961100 -0.225500 0.159700
vn -0.976700 0.000500 0.214600
usemtl Mage
s off
f 24/1/1 20/2/1 3/3/1
f 26/4/2 21/5/2 7/6/2
f 23/7/3 22/8/3 5/9/3
f 19/10/4 1/11/4 16/12/4
f 48/13/5 45/14/5 32/15/5
f 17/16/6 13/17/6 4/18/6
f 17/16/7 9/19/7 2/20/7
f 47/21/8 43/22/8 28/23/8
f 23/7/9 12/24/9 7/6/9
f 24/1/10 10/25/10 1/26/10
f 43/27/11 44/28/11 27/29/11
f 6/30/12 11/31/12 17/16/12
f 8/32/13 13/17/13 17/16/13
f 45/33/14 46/34/14 31/35/14
f 25/36/15 16/37/15 5/9/15
f 20/38/16 26/39/16 14/40/16
f 13/41/17 26/39/17 20/38/17
f 6/42/18 15/43/18 25/44/18
f 9/45/19 24/1/19 19/46/19
f 11/47/20 23/7/20 21/5/20
f 15/43/21 2/48/21 19/10/21
f 8/49/22 21/50/22 26/39/22
f 9/45/23 4/51/23 20/2/23
f 33/52/24 28/23/24 35/53/24
f 29/54/25 36/55/25 37/56/25
f 33/52/26 40/57/26 41/58/26
f 34/59/27 41/60/27 38/61/27
f 48/13/28 29/54/28 30/62/28
f 50/63/29 34/59/29 31/35/29
f 49/64/30 30/65/30 27/29/30
f 47/21/31 33/52/31 34/66/31
f 38/67/32 55/68/32 56/69/32
f 18/70/33 37/71/33 54/72/33
f 40/73/34 35/74/34 52/75/34
f 36/76/35 53/77/35 54/72/35
f 27/29/36 30/65/36 37/78/36
f 32/79/37 31/35/37 38/61/37
f 27/29/38 18/80/38 35/81/38
f 29/54/39 32/15/39 39/82/39
f 11/47/40 6/83/40 22/8/40
f 16/12/41 47/21/41 50/84/41
f 10/25/42 3/3/42 49/64/42
f 12/24/43 5/9/43 50/63/43
f 14/40/44 48/13/44 49/85/44
f 12/24/45 46/34/45 45/33/45
f 10/25/46 44/28/46 43/27/46
f 16/12/47 1/11/47 43/22/47
f 14/40/48 7/86/48 45/14/48
f 58/87/49 57/88/49 64/89/49
f 58/90/50 65/91/50 62/92/50
f 56/93/51 63/94/51 60/95/51
f 52/96/52 51/97/52 42/98/52
f 18/70/53 51/99/53 52/75/53
f 39/100/32 56/69/32 53/77/32
f 38/67/32 41/101/32 58/102/32
f 41/101/32 40/73/32 57/103/32
f 66/104/54 60/105/54 63/106/54
f 66/104/55 62/107/55 65/108/55
f 59/109/56 42/110/56 66/104/56
f 61/111/57 60/105/57 66/104/57
f 54/112/58 53/113/58 60/95/58
f 52/114/59 59/115/59 64/89/59
f 54/116/60 61/117/60 42/98/60
f 56/118/61 55/119/61 62/92/61
f 10/25/62 24/1/62 3/3/62
f 14/120/63 26/4/63 7/6/63
f 12/24/64 23/7/64 5/9/64
f 25/44/65 19/10/65 16/12/65
f 29/54/66 48/13/66 32/15/66
f 9/19/67 17/16/67 4/18/67
f 15/121/68 17/16/68 2/20/68
f 33/52/69 47/21/69 28/23/69
f 21/5/70 23/7/70 7/6/70
f 19/46/71 24/1/71 1/26/71
f 28/122/72 43/27/72 27/29/72
f 15/121/73 6/30/73 17/16/73
f 11/31/74 8/32/74 17/16/74
f 32/79/75 45/33/75 31/35/75
f 22/8/76 25/36/76 5/9/76
f 3/123/77 20/38/77 14/40/77
f 4/124/78 13/41/78 20/38/78
f 22/125/79 6/42/79 25/44/79
f 2/126/80 9/45/80 19/46/80
f 8/127/81 11/47/81 21/5/81
f 25/44/82 15/43/82 19/10/82
f 13/41/83 8/49/83 26/39/83
f 24/1/84 9/45/84 20/2/84
f 40/57/85 33/52/85 35/53/85
f 30/62/86 29/54/86 37/56/86
f 34/66/87 33/52/87 41/58/87
f 31/35/88 34/59/88 38/61/88
f 49/85/89 48/13/89 30/62/89
f 46/34/90 50/63/90 31/35/90
f 44/28/91 49/64/91 27/29/91
f 50/84/92 47/21/92 34/66/92
f 39/100/32 38/67/32 56/69/32
f 51/99/93 18/70/93 54/72/93
f 57/103/35 40/73/35 52/75/35
f 37/71/94 36/76/94 54/72/94
f 18/80/95 27/29/95 37/78/95
f 39/128/96 32/79/96 38/61/96
f 28/122/97 27/29/97 35/81/97
f 36/55/98 29/54/98 39/82/98
f 23/7/99 11/47/99 22/8/99
f 5/129/100 16/12/100 50/84/100
f 44/28/101 10/25/101 49/64/101
f 46/34/102 12/24/102 50/63/102
f 3/123/103 14/40/103 49/85/103
f 7/6/104 12/24/104 45/33/104
f 1/26/105 10/25/105 43/27/105
f 47/21/106 16/12/106 43/22/106
f 48/13/107 14/40/107 45/14/107
f 65/130/108 58/87/108 64/89/108
f 55/119/109 58/90/109 62/92/109
f 53/113/110 56/93/110 60/95/110
f 59/131/111 52/96/111 42/98/111
f 35/74/112 18/70/112 52/75/112
f 36/76/32 39/100/32 53/77/32
f 55/68/32 38/67/32 58/102/32
f 58/102/32 41/101/32 57/103/32
f 62/107/113 66/104/113 63/106/113
f 64/132/114 66/104/114 65/108/114
f 64/132/115 59/109/115 66/104/115
f 42/110/116 61/111/116 66/104/116
f 61/133/117 54/112/117 60/95/117
f 57/88/118 52/114/118 64/89/118
f 51/97/119 54/116/119 42/98/119
f 63/134/120 56/118/120 62/92/120
