# Blender v2.76 (sub 0) OBJ File: 'Mage.blend'
# www.blender.org
mtllib mage_legsP.mtl
g Cube.003_Cube.006
v -0.065346 -0.575439 0.090215
v -0.104737 0.097704 0.131347
v -0.065346 -0.575439 -0.090215
v -0.104737 0.097704 -0.131347
v 0.107447 -0.575439 0.090215
v 0.146838 0.097704 0.131347
v 0.107447 -0.575439 -0.090215
v 0.146838 0.097704 -0.131347
v 0.021050 0.138813 -0.158823
v 0.021050 -0.575439 -0.109086
v 0.021050 0.138813 0.158823
v 0.021050 -0.575439 0.109086
v -0.077636 -0.113186 0.103048
v -0.077636 -0.113186 -0.103048
v 0.119737 -0.113186 -0.103048
v 0.119737 -0.113186 0.103048
v 0.021050 -0.113186 0.124604
v 0.021050 -0.113186 -0.124604
v -0.122242 0.125052 0.000000
v -0.077369 -0.575439 0.000000
v 0.164342 0.125052 0.000000
v 0.119469 -0.575439 0.000000
v 0.021050 0.171882 0.000000
v 0.021050 -0.575439 0.000000
v 0.133470 -0.113186 0.000000
v -0.091369 -0.113186 0.000000
v -0.069664 -0.402576 -0.094724
v 0.111765 -0.402576 -0.094724
v 0.111765 -0.402576 0.094724
v 0.021050 -0.420891 0.114538
v 0.021050 -0.420891 -0.114538
v -0.069664 -0.402576 0.094724
v 0.124388 -0.414760 0.000000
v -0.082288 -0.414760 0.000000
v 0.268647 -0.484798 -0.094724
v 0.264329 -0.587516 -0.090215
v 0.268647 -0.484798 0.094724
v 0.264329 -0.587516 0.090215
v 0.276352 -0.587516 0.000000
v 0.281271 -0.492038 0.000000
vt 0.208603 0.265392
vt 0.210408 0.265155
vt 0.210322 0.268770
vt 0.197826 0.257870
vt 0.196082 0.258114
vt 0.196356 0.254511
vt 0.199139 0.273250
vt 0.197334 0.273593
vt 0.197334 0.269899
vt 0.204282 0.265793
vt 0.205989 0.265328
vt 0.206099 0.268942
vt 0.195261 0.271649
vt 0.197334 0.271472
vt 0.197102 0.273304
vt 0.208257 0.272079
vt 0.208382 0.275410
vt 0.206509 0.274752
vt 0.210913 0.274948
vt 0.196848 0.269701
vt 0.204453 0.269022
vt 0.202812 0.269153
vt 0.197998 0.254642
vt 0.199644 0.254722
vt 0.199644 0.268855
vt 0.197202 0.269596
vt 0.197484 0.264297
vt 0.201313 0.255115
vt 0.203658 0.254068
vt 0.203940 0.259366
vt 0.206099 0.254808
vt 0.205820 0.259275
vt 0.211106 0.264567
vt 0.211938 0.260180
vt 0.213896 0.260358
vt 0.194857 0.268548
vt 0.195609 0.264148
vt 0.211106 0.254662
vt 0.210567 0.259102
vt 0.208603 0.259084
vt 0.206099 0.254662
vt 0.208603 0.254068
vt 0.216099 0.264967
vt 0.213563 0.265363
vt 0.193419 0.269993
vt 0.195116 0.269596
vt 0.211117 0.269456
vt 0.211117 0.272207
vt 0.206099 0.271983
vt 0.206712 0.269260
vt 0.195406 0.273701
vt 0.193674 0.273596
vt 0.199840 0.269596
vt 0.199644 0.267454
vt 0.208603 0.268753
vt 0.206883 0.268770
vt 0.206797 0.265155
vt 0.214314 0.254068
vt 0.216099 0.254447
vt 0.199534 0.258336
vt 0.202537 0.265549
vt 0.212498 0.254158
vt 0.202783 0.271578
vt 0.202903 0.273560
vt 0.200944 0.273466
vt 0.200961 0.271578
vt 0.200944 0.269691
vt 0.199139 0.269596
vt 0.200944 0.269899
vt 0.195637 0.276979
vt 0.193905 0.276874
vt 0.197334 0.276582
vt 0.193188 0.256209
vt 0.199364 0.264388
vt 0.202065 0.259516
vt 0.206639 0.259102
vt 0.215856 0.260494
vt 0.193188 0.271825
vt 0.202903 0.269596
vt 0.200944 0.273593
vt 0.193384 0.254068
vn -0.990400 -0.028300 -0.135600
vn 0.219200 -0.030900 -0.975200
vn 0.463600 0.884500 -0.052000
vn -0.219200 -0.030900 0.975200
vn 0.000000 -1.000000 0.000000
vn -0.342400 0.919800 -0.191500
vn 0.342400 0.919800 -0.191500
vn 0.213300 -0.034400 0.976400
vn -0.213300 -0.034400 -0.976400
vn -0.170000 -0.132600 -0.976500
vn 0.170000 -0.132600 0.976500
vn -0.210800 -0.156600 0.964900
vn 0.981000 -0.143600 0.130700
vn 0.210800 -0.156600 -0.964900
vn -0.981000 -0.143600 -0.130700
vn -0.986200 -0.127800 0.104800
vn 0.986200 -0.127800 -0.104800
vn 0.302100 0.924400 0.232700
vn -0.302100 0.924400 0.232700
vn -0.003400 -0.043700 0.999000
vn -0.990800 -0.030300 0.132000
vn -0.990300 -0.029800 0.135800
vn 0.990300 -0.029800 -0.135800
vn -0.219400 -0.031900 -0.975100
vn 0.219400 -0.031900 0.975100
vn -0.213300 -0.034000 0.976400
vn 0.990800 -0.031100 0.132000
vn 0.213300 -0.034000 -0.976400
vn -0.990800 -0.031100 -0.132000
vn 0.989600 -0.047600 0.135500
vn 0.989900 -0.051000 -0.131900
vn 0.441900 0.897000 0.009700
vn -0.076800 -0.997000 -0.010200
vn -0.076800 -0.997000 0.010200
vn -0.013500 -0.025700 -0.999600
vn -0.990800 -0.030300 -0.132000
vn 0.213300 -0.034400 -0.976400
vn 0.441900 0.897000 -0.009700
vn -0.213300 -0.034400 0.976400
vn -0.302100 0.924400 -0.232700
vn 0.302100 0.924400 -0.232700
vn 0.219200 -0.030900 0.975200
vn -0.219200 -0.030900 -0.975200
vn -0.210800 -0.156600 -0.964900
vn 0.210800 -0.156600 0.964900
vn -0.170000 -0.132600 0.976500
vn 0.986200 -0.127800 0.104800
vn 0.170000 -0.132600 -0.976500
vn -0.986200 -0.127800 -0.104800
vn -0.981000 -0.143600 0.130700
vn 0.981000 -0.143600 -0.130700
vn 0.342400 0.919800 0.191500
vn -0.342400 0.919800 0.191500
vn -0.013500 -0.025700 0.999600
vn -0.990400 -0.028300 0.135600
vn -0.990800 -0.031100 0.132000
vn 0.990800 -0.031100 -0.132000
vn -0.213300 -0.034000 -0.976400
vn 0.213300 -0.034000 0.976400
vn -0.219400 -0.031900 0.975100
vn 0.990300 -0.029800 0.135800
vn 0.219400 -0.031900 -0.975100
vn -0.990300 -0.029800 -0.135800
vn 0.989900 -0.051000 0.131900
vn 0.989600 -0.047600 -0.135500
vn 0.463600 0.884500 0.052000
vn -0.003400 -0.043700 -0.999000
usemtl Mage
s off
f 34/1/1 27/2/1 3/3/1
f 31/4/2 28/5/2 7/6/2
f 33/7/3 29/8/3 37/9/3
f 30/10/4 32/11/4 1/12/4
f 24/13/5 10/14/5 7/15/5
f 23/16/6 9/17/6 4/18/6
f 8/19/7 9/17/7 23/16/7
f 3/20/5 10/14/5 24/13/5
f 30/10/8 12/21/8 5/22/8
f 31/4/9 10/23/9 3/24/9
f 4/25/10 9/26/10 18/27/10
f 6/28/11 11/29/11 17/30/11
f 2/31/12 13/32/12 17/30/12
f 6/33/13 16/34/13 25/35/13
f 8/36/14 15/37/14 18/27/14
f 4/38/15 14/39/15 26/40/15
f 2/41/16 19/42/16 26/40/16
f 8/43/17 21/44/17 25/35/17
f 1/45/5 20/46/5 24/13/5
f 6/47/18 21/48/18 23/16/18
f 23/16/19 19/49/19 2/50/19
f 24/13/5 22/51/5 5/52/5
f 5/22/20 38/53/20 37/54/20
f 34/1/21 20/55/21 1/56/21
f 26/40/22 34/1/22 32/57/22
f 25/35/23 33/58/23 28/59/23
f 18/27/24 31/4/24 27/60/24
f 17/30/25 30/10/25 29/61/25
f 17/30/26 13/32/26 32/11/26
f 25/35/27 16/34/27 29/62/27
f 18/27/28 15/37/28 28/5/28
f 26/40/29 14/39/29 27/2/29
f 40/63/30 37/64/30 38/65/30
f 40/63/31 39/66/31 36/67/31
f 33/7/32 40/68/32 35/69/32
f 22/51/33 39/70/33 38/71/33
f 22/51/34 7/15/34 36/72/34
f 7/6/35 28/5/35 35/73/35
f 20/55/36 34/1/36 3/3/36
f 10/23/37 31/4/37 7/6/37
f 40/68/38 33/7/38 37/9/38
f 12/21/39 30/10/39 1/12/39
f 22/51/5 24/13/5 7/15/5
f 19/49/40 23/16/40 4/18/40
f 21/48/41 8/19/41 23/16/41
f 20/46/5 3/20/5 24/13/5
f 29/61/42 30/10/42 5/22/42
f 27/60/43 31/4/43 3/24/43
f 14/74/44 4/25/44 18/27/44
f 16/75/45 6/28/45 17/30/45
f 11/29/46 2/31/46 17/30/46
f 21/44/47 6/33/47 25/35/47
f 9/26/48 8/36/48 18/27/48
f 19/42/49 4/38/49 26/40/49
f 13/76/50 2/41/50 26/40/50
f 15/77/51 8/43/51 25/35/51
f 12/78/5 1/45/5 24/13/5
f 11/55/52 6/47/52 23/16/52
f 11/55/53 23/16/53 2/50/53
f 12/78/5 24/13/5 5/52/5
f 29/61/54 5/22/54 37/54/54
f 32/57/55 34/1/55 1/56/55
f 13/76/56 26/40/56 32/57/56
f 15/77/57 25/35/57 28/59/57
f 14/74/58 18/27/58 27/60/58
f 16/75/59 17/30/59 29/61/59
f 30/10/60 17/30/60 32/11/60
f 33/58/61 25/35/61 29/62/61
f 31/4/62 18/27/62 28/5/62
f 34/1/63 26/40/63 27/2/63
f 39/66/64 40/63/64 38/65/64
f 35/79/65 40/63/65 36/67/65
f 28/80/66 33/7/66 35/69/66
f 5/52/33 22/51/33 38/71/33
f 39/70/34 22/51/34 36/72/34
f 36/81/67 7/6/67 35/73/67
