# Blender v2.76 (sub 0) OBJ File: 'bluePatron.blend'
# www.blender.org
mtllib yellow_head.mtl
g Cube_Cube.003
v -0.160962 -0.160962 0.107611
v -0.094677 0.158321 0.130471
v -0.160962 -0.160962 -0.107611
v -0.094677 0.158321 -0.130471
v 0.099340 -0.160962 0.107835
v 0.253435 0.158321 0.131148
v 0.099340 -0.160962 -0.107835
v 0.253435 0.158321 -0.131148
v -0.162823 0.000000 0.106329
v -0.162823 0.000000 -0.106329
v 0.162823 0.000000 -0.107814
v 0.162823 0.000000 0.107814
v 0.081058 0.200270 -0.161417
v 0.000000 -0.199433 -0.134969
v 0.081058 0.200270 0.161417
v 0.000000 -0.199433 0.134969
v 0.000000 0.000000 0.129574
v 0.000000 0.000000 -0.129574
v -0.113567 0.177254 -0.000000
v -0.178325 -0.178325 -0.000000
v 0.272368 0.177254 -0.000000
v 0.143332 -0.178325 -0.000000
v 0.180387 0.000000 -0.000000
v -0.180387 0.000000 -0.000000
v 0.018809 0.469723 -0.000000
v 0.000000 -0.220946 -0.000000
v -0.045710 0.349008 -0.000000
v -0.025539 0.330193 -0.122039
v 0.152838 0.371881 -0.151208
v 0.335931 0.330193 -0.122039
v 0.356102 0.349008 -0.000000
v 0.335931 0.330193 0.122039
v 0.152838 0.371881 0.151208
v -0.025539 0.330193 0.122039
v 0.032697 0.456768 -0.087697
v 0.155143 0.485473 -0.107719
v 0.277727 0.456768 -0.087697
v 0.291583 0.469723 -0.000000
v 0.277727 0.456768 0.087697
v 0.155143 0.485473 0.107719
v 0.032697 0.456768 0.087697
v 0.153558 0.533103 -0.000000
vt 0.797521 0.422420
vt 0.775409 0.424701
vt 0.773688 0.390486
vt 0.738797 0.431897
vt 0.707982 0.447228
vt 0.706251 0.408546
vt 0.876257 0.473592
vt 0.876261 0.512361
vt 0.853761 0.511943
vt 0.670273 0.503487
vt 0.701473 0.518358
vt 0.687416 0.551136
vt 0.662343 0.579749
vt 0.634500 0.584436
vt 0.638021 0.564388
vt 0.799320 0.464795
vt 0.801073 0.506066
vt 0.775524 0.504669
vt 0.701749 0.479752
vt 0.881125 0.432912
vt 0.853761 0.472003
vt 0.740353 0.479795
vt 0.704179 0.487569
vt 0.772009 0.463372
vt 0.770364 0.455417
vt 0.671589 0.455124
vt 0.639488 0.488544
vt 0.853761 0.427314
vt 0.826397 0.432912
vt 0.828298 0.390185
vt 0.644174 0.620581
vt 0.653260 0.544316
vt 0.637878 0.527303
vt 0.721665 0.391164
vt 0.755740 0.384500
vt 0.688777 0.614983
vt 0.666780 0.620581
vt 0.853761 0.384500
vt 0.879225 0.390185
vt 0.819734 0.422527
vt 0.772009 0.496958
vt 0.659234 0.551136
vt 0.682717 0.558779
vt 0.831266 0.473592
vt 0.795910 0.384500
vt 0.818548 0.388286
vt 0.725698 0.631125
vt 0.703288 0.626007
vt 0.706077 0.603932
vt 0.741484 0.521551
vt 0.751063 0.545500
vt 0.725425 0.551239
vt 0.672620 0.413410
vt 0.682244 0.389880
vt 0.703288 0.406935
vt 0.634500 0.405132
vt 0.656658 0.384500
vt 0.826397 0.460704
vt 0.826397 0.502174
vt 0.703288 0.438229
vt 0.635496 0.447879
vt 0.803316 0.558905
vt 0.780437 0.549948
vt 0.783997 0.535293
vt 0.705687 0.575771
vt 0.724692 0.573644
vt 0.740843 0.607610
vt 0.722236 0.607526
vt 0.733431 0.551239
vt 0.750899 0.557048
vt 0.772009 0.528601
vt 0.802353 0.536217
vt 0.820555 0.533500
vt 0.769901 0.417162
vt 0.690442 0.577416
vt 0.831262 0.512361
vt 0.703288 0.530354
vt 0.748389 0.580288
vt 0.751668 0.631125
vn -0.986600 -0.010100 -0.163000
vn 0.132300 -0.052000 -0.989800
vn 0.851900 -0.336000 0.401700
vn -0.141300 0.006300 0.989900
vn 0.391500 -0.908700 -0.144800
vn -0.910100 0.359600 -0.205900
vn -0.140800 -0.089800 0.986000
vn 0.850600 -0.507200 0.138600
vn 0.119000 -0.211100 -0.970200
vn -0.912600 0.364600 -0.185000
vn -0.150500 -0.095600 -0.984000
vn 0.129600 -0.206700 0.969800
vn 0.900800 -0.428800 -0.068100
vn -0.254200 -0.955100 -0.152200
vn 0.254000 0.026200 0.966900
vn -0.161300 0.026700 -0.986500
vn -0.228200 -0.954700 0.190900
vn 0.895900 -0.436800 0.080700
vn -0.924700 0.348600 0.152800
vn 0.885900 -0.459700 -0.061500
vn -0.201700 0.128800 -0.970900
vn 0.275100 -0.925200 0.261200
vn 0.966900 -0.200900 -0.157500
vn -0.986900 -0.011400 0.161100
vn 0.864500 0.455300 -0.213100
vn 0.229300 0.344000 -0.910600
vn -0.230800 0.352000 0.907100
vn 0.224600 0.350000 0.909400
vn -0.908400 0.374500 0.185900
vn -0.191100 0.137800 0.971900
vn 0.170000 -0.012500 -0.985400
vn 0.152600 -0.020900 0.988100
vn -0.270300 0.879100 -0.392700
vn 0.269600 0.882200 -0.386100
vn 0.409200 0.891100 0.196300
vn -0.417300 0.887100 0.197100
vn -0.230600 0.352200 -0.907100
vn 0.863300 0.461400 0.204600
vn -0.863200 0.461400 -0.204900
vn -0.864400 0.455500 0.213100
vn -0.986900 -0.011400 -0.161100
vn 0.254000 0.026200 -0.966900
vn 0.966900 -0.200900 0.157500
vn -0.161300 0.026700 0.986500
vn 0.275100 -0.925200 -0.261200
vn -0.908400 0.374500 -0.185900
vn -0.150500 -0.095600 0.984000
vn 0.885900 -0.459700 0.061500
vn 0.129600 -0.206700 -0.969800
vn -0.924700 0.348600 -0.152800
vn -0.140800 -0.089800 -0.986000
vn 0.119000 -0.211100 0.970200
vn 0.895900 -0.436800 -0.080700
vn -0.228200 -0.954700 -0.190900
vn 0.132300 -0.052000 0.989800
vn -0.141300 0.006300 -0.989900
vn -0.254200 -0.955100 0.152200
vn 0.900800 -0.428800 0.068100
vn -0.912600 0.364600 0.185000
vn 0.850600 -0.507200 -0.138600
vn -0.191100 0.137800 -0.971900
vn 0.391500 -0.908700 0.144800
vn 0.851900 -0.336000 -0.401700
vn -0.986600 -0.010100 0.163000
vn 0.863300 0.461400 -0.204600
vn 0.224600 0.350000 -0.909400
vn -0.230600 0.352200 0.907100
vn 0.229300 0.344000 0.910600
vn -0.910100 0.359600 0.205900
vn -0.201700 0.128800 0.970900
vn 0.152600 -0.020900 -0.988100
vn 0.170000 -0.012500 0.985400
vn -0.417300 0.887100 -0.197100
vn 0.409200 0.891100 -0.196300
vn 0.269600 0.882200 0.386100
vn -0.270300 0.879100 0.392700
vn -0.230800 0.352000 -0.907100
vn 0.864500 0.455300 0.213100
vn -0.864400 0.455500 -0.213100
vn -0.863200 0.461400 0.204900
usemtl Blue
s off
f 24/1/1 10/2/1 3/3/1
f 18/4/2 11/5/2 7/6/2
f 12/7/3 5/8/3 22/9/3
f 17/10/4 9/11/4 1/12/4
f 26/13/5 14/14/5 7/15/5
f 19/16/6 27/17/6 28/18/6
f 2/19/7 9/11/7 17/10/7
f 6/20/8 12/7/8 23/21/8
f 13/22/9 8/23/9 11/5/9
f 19/16/10 4/24/10 10/2/10
f 4/25/11 13/22/11 18/4/11
f 15/26/12 17/10/12 12/27/12
f 21/28/13 8/29/13 30/30/13
f 3/31/14 14/14/14 26/13/14
f 17/10/15 16/32/15 5/33/15
f 18/4/16 14/34/16 3/35/16
f 1/36/17 20/37/17 26/13/17
f 21/28/18 31/38/18 32/39/18
f 19/16/19 24/1/19 9/40/19
f 8/29/20 21/28/20 23/21/20
f 13/22/21 4/25/21 28/41/21
f 26/13/22 22/42/22 5/43/22
f 11/44/23 23/21/23 22/9/23
f 24/1/24 20/45/24 1/46/24
f 31/47/25 30/48/25 37/49/25
f 29/50/26 36/51/26 37/52/26
f 33/53/27 40/54/27 41/55/27
f 33/53/28 32/56/28 39/57/28
f 19/16/29 2/58/29 34/59/29
f 15/26/30 33/53/30 34/60/30
f 8/23/31 13/22/31 29/50/31
f 6/61/32 32/56/32 33/53/32
f 42/62/33 36/63/33 35/64/33
f 37/49/34 36/65/34 42/66/34
f 39/67/35 38/68/35 42/66/35
f 42/66/36 25/69/36 41/70/36
f 29/50/37 28/41/37 35/71/37
f 31/47/38 38/68/38 39/67/38
f 27/17/39 25/72/39 35/64/39
f 27/17/40 34/59/40 41/73/40
f 20/45/41 24/1/41 3/3/41
f 14/34/42 18/4/42 7/6/42
f 23/21/43 12/7/43 22/9/43
f 16/32/44 17/10/44 1/12/44
f 22/42/45 26/13/45 7/15/45
f 4/24/46 19/16/46 28/18/46
f 15/26/47 2/19/47 17/10/47
f 21/28/48 6/20/48 23/21/48
f 18/4/49 13/22/49 11/5/49
f 24/1/50 19/16/50 10/2/50
f 10/74/51 4/25/51 18/4/51
f 6/61/52 15/26/52 12/27/52
f 31/38/53 21/28/53 30/30/53
f 20/37/54 3/31/54 26/13/54
f 12/27/55 17/10/55 5/33/55
f 10/74/56 18/4/56 3/35/56
f 16/75/57 1/36/57 26/13/57
f 6/20/58 21/28/58 32/39/58
f 2/58/59 19/16/59 9/40/59
f 11/44/60 8/29/60 23/21/60
f 29/50/61 13/22/61 28/41/61
f 16/75/62 26/13/62 5/43/62
f 7/76/63 11/44/63 22/9/63
f 9/40/64 24/1/64 1/46/64
f 38/68/65 31/47/65 37/49/65
f 30/77/66 29/50/66 37/52/66
f 34/60/67 33/53/67 41/55/67
f 40/54/68 33/53/68 39/57/68
f 27/17/69 19/16/69 34/59/69
f 2/19/70 15/26/70 34/60/70
f 30/77/71 8/23/71 29/50/71
f 15/26/72 6/61/72 33/53/72
f 25/72/73 42/62/73 35/64/73
f 38/68/74 37/49/74 42/66/74
f 40/78/75 39/67/75 42/66/75
f 40/78/76 42/66/76 41/70/76
f 36/51/77 29/50/77 35/71/77
f 32/79/78 31/47/78 39/67/78
f 28/18/79 27/17/79 35/64/79
f 25/72/80 27/17/80 41/73/80
