# Blender v2.76 (sub 0) OBJ File: 'ironman.blend'
# www.blender.org
mtllib hand.mtl
g polySurface632_polySurface664
v -0.018912 -0.053369 0.033798
v -0.014009 -0.104564 0.014886
v 0.000000 -0.108213 0.020308
v 0.000000 -0.053109 0.038619
v -0.018912 0.080911 -0.034628
v -0.017865 0.072676 0.028953
v 0.000000 0.081467 0.028317
v 0.000000 0.089561 -0.034628
v -0.018912 0.054962 -0.100461
v -0.014009 0.074183 -0.075322
v 0.000000 0.080911 -0.089564
v 0.000000 0.054962 -0.107876
v -0.018912 -0.121963 -0.034629
v -0.014009 -0.102488 -0.087515
v 0.000000 -0.108213 -0.089565
v 0.000000 -0.126581 -0.034629
v 0.018912 -0.053369 0.033798
v 0.014009 -0.104564 0.014886
v 0.018912 -0.121963 -0.034629
v 0.025217 -0.053109 -0.034629
v -0.018912 -0.053109 -0.100461
v -0.025217 -0.053109 -0.034629
v -0.011872 0.003109 0.098937
v -0.012505 -0.010272 0.090301
v 0.000000 -0.012521 0.090796
v 0.000000 -0.000414 0.100984
v -0.018912 0.010644 -0.100461
v 0.000000 0.010644 -0.107876
v 0.000000 -0.053109 -0.107876
v 0.023876 0.049311 0.027884
v 0.020511 0.011328 0.030854
v 0.025217 0.010644 -0.034629
v 0.025217 0.054962 -0.034628
v -0.025217 0.010644 -0.034629
v -0.025217 0.054962 -0.034628
v -0.014722 0.011421 0.063333
v -0.020511 0.011328 0.030854
v 0.000000 -0.001455 0.043570
v 0.000000 0.006564 0.058423
v 0.014722 0.011421 0.063333
v 0.019856 0.032358 0.068926
v 0.014722 0.047969 0.073202
v 0.017865 0.072676 0.028953
v 0.000000 0.057185 0.070657
v -0.014722 0.047969 0.073202
v -0.023876 0.049311 0.027884
v -0.019856 0.032358 0.068926
v 0.018912 0.080911 -0.034628
v 0.014009 0.074183 -0.075322
v 0.018912 0.054962 -0.100461
v 0.018912 0.010644 -0.100461
v 0.014009 -0.102488 -0.087515
v 0.018912 -0.053109 -0.100461
v 0.012505 -0.010272 0.090301
v 0.011872 0.003109 0.098937
v 0.012185 0.016629 0.109939
v 0.000000 0.017858 0.113040
v -0.012185 0.016629 0.109939
vt 0.173345 0.413204
vt 0.213999 0.413204
vt 0.213999 0.440843
vt 0.173345 0.535165
vt 0.173345 0.494512
vt 0.213999 0.504675
vt 0.173345 0.588835
vt 0.173345 0.575819
vt 0.213999 0.568910
vt 0.173345 0.657127
vt 0.213999 0.660381
vt 0.213999 0.697780
vt 0.254653 0.413204
vt 0.295306 0.413204
vt 0.295306 0.440843
vt 0.092038 0.413204
vt 0.132691 0.413204
vt 0.132691 0.440843
vt 0.191414 0.474473
vt 0.213999 0.471735
vt 0.213999 0.481496
vt 0.173345 0.601850
vt 0.213999 0.605506
vt 0.213999 0.629488
vt 0.264816 0.481964
vt 0.254653 0.466216
vt 0.295306 0.464825
vt 0.092038 0.481496
vt 0.092038 0.468481
vt 0.132691 0.464825
vt 0.183509 0.472203
vt 0.173345 0.466216
vt 0.213999 0.461571
vt 0.254653 0.483368
vt 0.254653 0.494512
vt 0.213999 0.494512
vt 0.183509 0.491726
vt 0.163182 0.481964
vt 0.254653 0.440843
vt 0.173345 0.440843
vt 0.254653 0.535165
vt 0.254653 0.575819
vt 0.213999 0.535165
vt 0.254653 0.588835
vt 0.254653 0.601850
vt 0.213999 0.588835
vt 0.254653 0.657127
vt 0.254653 0.697780
vt 0.254653 0.738434
vt 0.213999 0.738434
vt 0.173345 0.738434
vt 0.173345 0.697780
vt 0.335960 0.413204
vt 0.335960 0.440843
vt 0.335960 0.468481
vt 0.092038 0.440843
vt 0.236584 0.474473
vt 0.244489 0.481964
vt 0.236584 0.488935
vt 0.213999 0.491258
vt 0.191414 0.488935
vt 0.183509 0.481964
vt 0.254653 0.629488
vt 0.173345 0.629488
vt 0.335960 0.481496
vt 0.335960 0.494512
vt 0.295306 0.494512
vt 0.295306 0.481496
vt 0.132691 0.494512
vt 0.132691 0.481496
vt 0.092038 0.494512
vt 0.244489 0.472203
vt 0.213999 0.468481
vt 0.244489 0.491726
vt 0.173345 0.483368
vn -0.670800 -0.526400 0.522400
vn 0.000000 -0.710200 0.704000
vn 0.006500 -0.224800 0.974400
vn -0.770900 0.634800 -0.052000
vn -0.762100 0.605200 0.230200
vn 0.006900 0.946100 0.323900
vn -0.803400 0.275500 -0.527800
vn -0.727300 0.640900 -0.245500
vn 0.058000 0.903900 -0.423900
vn -0.655900 -0.526100 -0.541400
vn 0.000000 -0.698000 -0.716100
vn 0.000000 -1.000000 -0.005400
vn 0.670700 -0.526900 0.522000
vn 0.765700 -0.643200 -0.003000
vn 0.998400 -0.056600 -0.003700
vn -0.723600 -0.686600 0.070700
vn -0.998400 -0.056600 -0.003700
vn -0.687600 -0.706800 0.166200
vn 0.000000 -0.985900 0.167300
vn -0.000000 -0.591100 0.806600
vn -0.798300 -0.000000 -0.602200
vn 0.000000 0.000000 -1.000000
vn -0.005700 -0.144900 -0.989400
vn 0.992000 0.083800 0.093900
vn 0.925200 -0.243500 0.291100
vn 0.999800 -0.007200 -0.019900
vn -0.999800 -0.007200 -0.019900
vn -0.797400 -0.602900 -0.026400
vn -0.925200 -0.243800 0.290800
vn 0.024100 -0.603300 0.797100
vn 0.988300 0.025900 0.150000
vn 0.762000 0.605200 0.230200
vn 0.030100 0.819600 0.572200
vn -0.727200 0.533500 0.431900
vn -0.991300 0.083800 0.101900
vn 0.728400 -0.215000 0.650600
vn -0.707700 -0.182100 0.682700
vn 0.759000 0.647500 -0.068000
vn 0.727300 0.640900 -0.245500
vn 0.000300 0.999400 -0.035600
vn 0.784000 0.198800 -0.588100
vn 0.798300 0.000000 -0.602200
vn -0.026500 0.267300 -0.963200
vn 0.655800 -0.526100 -0.541400
vn 0.796100 -0.114900 -0.594200
vn -0.786000 -0.090400 -0.611600
vn 0.687000 -0.707100 0.167800
vn 0.762900 -0.388600 0.516600
vn 0.662400 0.056700 0.747000
vn -0.000000 0.119300 0.992900
vn -0.662600 0.055800 0.746900
vn -0.772000 -0.379500 0.509900
vn 0.990200 0.134300 -0.039300
vn -0.990000 0.134500 -0.041500
vn 0.806500 -0.590800 0.021500
vn -0.060000 -0.996600 0.056500
vn 0.725700 0.523900 0.446000
vn -0.983800 0.024000 0.177600
usemtl face1SG
s 1
f 2/1/1 3/2/2 4/3/3
f 5/4/4 6/5/5 7/6/6
f 9/7/7 10/8/8 11/9/9
f 14/10/10 15/11/11 16/12/12
f 18/13/13 19/14/14 20/15/15
f 14/16/10 13/17/16 22/18/17
f 24/19/18 25/20/19 26/21/20
f 27/22/21 28/23/22 29/24/23
f 30/25/24 31/26/25 32/27/26
f 9/28/7 27/29/21 34/30/27
f 36/31/28 37/32/29 38/33/30
f 31/26/25 30/25/24 41/34/31
f 43/35/32 7/6/6 44/36/33
f 45/37/34 6/5/5 46/38/35
f 18/13/13 17/39/36 4/3/3
f 17/39/36 31/26/25 38/33/30
f 38/33/30 37/32/29 1/40/37
f 7/6/6 43/35/32 48/41/38
f 49/42/39 11/9/9 8/43/40
f 10/8/8 5/4/4 8/43/40
f 11/9/9 49/42/39 50/44/41
f 51/45/42 28/23/22 12/46/43
f 27/22/21 9/7/7 12/46/43
f 52/47/44 19/48/14 16/12/12
f 18/49/13 3/50/2 16/12/12
f 2/51/1 13/52/16 16/12/12
f 52/53/44 53/54/45 20/15/15
f 53/54/45 51/55/42 32/27/26
f 31/26/25 17/39/36 20/15/15
f 2/1/1 1/40/37 22/18/17
f 37/32/29 34/30/27 22/18/17
f 27/29/21 21/56/46 22/18/17
f 54/57/47 55/58/48 26/21/20
f 56/59/49 57/60/50 26/21/20
f 58/61/51 23/62/52 26/21/20
f 51/45/42 53/63/45 29/24/23
f 52/47/44 15/11/11 29/24/23
f 14/10/10 21/64/46 29/24/23
f 32/27/26 51/55/42 50/65/41
f 49/66/39 48/67/38 33/68/53
f 43/35/32 30/25/24 33/68/53
f 34/30/27 37/32/29 46/38/35
f 6/5/5 5/69/4 35/70/54
f 10/71/8 9/28/7 35/70/54
f 38/33/30 31/26/25 40/72/55
f 54/57/47 25/20/19 39/73/56
f 24/19/18 36/31/28 39/73/56
f 30/25/24 43/35/32 42/74/57
f 56/59/49 55/58/48 41/34/31
f 55/58/48 54/57/47 40/72/55
f 6/5/5 45/37/34 44/36/33
f 45/37/34 58/61/51 57/60/50
f 57/60/50 56/59/49 42/74/57
f 37/32/29 36/31/28 47/75/58
f 36/31/28 24/19/18 23/62/52
f 58/61/51 45/37/34 47/75/58
f 1/40/37 2/1/1 4/3/3
f 8/43/40 5/4/4 7/6/6
f 12/46/43 9/7/7 11/9/9
f 13/52/16 14/10/10 16/12/12
f 17/39/36 18/13/13 20/15/15
f 21/56/46 14/16/10 22/18/17
f 23/62/52 24/19/18 26/21/20
f 21/64/46 27/22/21 29/24/23
f 33/68/53 30/25/24 32/27/26
f 35/70/54 9/28/7 34/30/27
f 39/73/56 36/31/28 38/33/30
f 40/72/55 31/26/25 41/34/31
f 42/74/57 43/35/32 44/36/33
f 47/75/58 45/37/34 46/38/35
f 3/2/2 18/13/13 4/3/3
f 4/3/3 17/39/36 38/33/30
f 4/3/3 38/33/30 1/40/37
f 8/43/40 7/6/6 48/41/38
f 48/41/38 49/42/39 8/43/40
f 11/9/9 10/8/8 8/43/40
f 12/46/43 11/9/9 50/44/41
f 50/44/41 51/45/42 12/46/43
f 28/23/22 27/22/21 12/46/43
f 15/11/11 52/47/44 16/12/12
f 19/48/14 18/49/13 16/12/12
f 3/50/2 2/51/1 16/12/12
f 19/14/14 52/53/44 20/15/15
f 20/15/15 53/54/45 32/27/26
f 32/27/26 31/26/25 20/15/15
f 13/17/16 2/1/1 22/18/17
f 1/40/37 37/32/29 22/18/17
f 34/30/27 27/29/21 22/18/17
f 25/20/19 54/57/47 26/21/20
f 55/58/48 56/59/49 26/21/20
f 57/60/50 58/61/51 26/21/20
f 28/23/22 51/45/42 29/24/23
f 53/63/45 52/47/44 29/24/23
f 15/11/11 14/10/10 29/24/23
f 33/68/53 32/27/26 50/65/41
f 50/65/41 49/66/39 33/68/53
f 48/67/38 43/35/32 33/68/53
f 35/70/54 34/30/27 46/38/35
f 46/38/35 6/5/5 35/70/54
f 5/69/4 10/71/8 35/70/54
f 39/73/56 38/33/30 40/72/55
f 40/72/55 54/57/47 39/73/56
f 25/20/19 24/19/18 39/73/56
f 41/34/31 30/25/24 42/74/57
f 42/74/57 56/59/49 41/34/31
f 41/34/31 55/58/48 40/72/55
f 7/6/6 6/5/5 44/36/33
f 44/36/33 45/37/34 57/60/50
f 44/36/33 57/60/50 42/74/57
f 46/38/35 37/32/29 47/75/58
f 47/75/58 36/31/28 23/62/52
f 23/62/52 58/61/51 47/75/58
