# Blender v2.76 (sub 0) OBJ File: 'cat.blend'
# www.blender.org
mtllib cat_feet.mtl
g Sphere.004
v 0.000000 -0.044809 -0.000000
v -0.152858 -0.094476 -0.000000
v -0.247330 -0.224504 -0.000000
v -0.247330 -0.385229 -0.000000
v 0.000000 -0.564925 -0.000000
v -0.047236 -0.094476 -0.145377
v -0.076429 -0.224504 -0.235225
v -0.076429 -0.385229 -0.235225
v -0.047236 -0.515258 -0.145377
v 0.123665 -0.094476 -0.089848
v 0.200094 -0.224504 -0.145377
v 0.200094 -0.385229 -0.145377
v 0.123665 -0.515258 -0.089848
v 0.123665 -0.094476 0.089848
v 0.200094 -0.224504 0.145377
v 0.200094 -0.385229 0.145377
v 0.123665 -0.515258 0.089848
v -0.047236 -0.094476 0.145377
v -0.076429 -0.224504 0.235225
v -0.076429 -0.385229 0.235225
v -0.047236 -0.515258 0.145377
v -0.152858 -0.515258 -0.000000
vn -0.656100 0.754600 0.000000
vn -0.202800 0.754600 -0.624000
vn -0.296700 0.279500 -0.913100
vn -0.960100 0.279500 0.000000
vn -0.296700 -0.279500 -0.913100
vn 0.776800 0.279500 -0.564300
vn 0.776800 -0.279500 -0.564300
vn 0.530800 -0.754600 -0.385700
vn 0.530800 0.754600 -0.385700
vn 0.776800 0.279500 0.564300
vn 0.776800 -0.279500 0.564300
vn 0.530800 -0.754600 0.385700
vn 0.530800 0.754600 0.385700
vn -0.296700 0.279500 0.913100
vn -0.296700 -0.279500 0.913100
vn -0.202800 0.754600 0.624000
vn 0.000000 1.000000 0.000000
vn -0.656100 -0.754600 0.000000
vn -0.960100 -0.279500 0.000000
vn 0.000000 -1.000000 0.000000
vn -0.202700 -0.754600 -0.624000
vn -0.202800 -0.754600 0.624000
usemtl Cinza
s 1
f 2//1 6//2 7//3
f 3//4 7//3 8//5
f 7//3 11//6 12//7
f 8//5 12//7 13//8
f 6//2 10//9 11//6
f 11//6 15//10 16//11
f 12//7 16//11 17//12
f 10//9 14//13 15//10
f 15//10 19//14 20//15
f 17//12 16//11 20//15
f 14//13 18//16 19//14
f 2//1 1//17 6//2
f 22//18 4//19 8//5
f 5//20 22//18 9//21
f 5//20 9//21 13//8
f 6//2 1//17 10//9
f 5//20 13//8 17//12
f 10//9 1//17 14//13
f 5//20 17//12 21//22
f 14//13 1//17 18//16
f 5//20 21//22 22//18
f 19//14 3//4 4//19
f 18//16 1//17 2//1
f 21//22 20//15 4//19
f 18//16 2//1 3//4
f 3//4 2//1 7//3
f 4//19 3//4 8//5
f 8//5 7//3 12//7
f 9//21 8//5 13//8
f 7//3 6//2 11//6
f 12//7 11//6 16//11
f 13//8 12//7 17//12
f 11//6 10//9 15//10
f 16//11 15//10 20//15
f 21//22 17//12 20//15
f 15//10 14//13 19//14
f 9//21 22//18 8//5
f 20//15 19//14 4//19
f 22//18 21//22 4//19
f 19//14 18//16 3//4
