# Blender v2.76 (sub 0) OBJ File: 'Eptacio.blend'
# www.blender.org
mtllib feet.mtl
g Sphere.001
v -0.023550 -0.305016 -0.000000
v 0.269808 -0.379683 -0.000000
v 0.269808 0.055506 -0.229670
v 0.269808 -0.124755 -0.324802
v 0.269808 -0.305016 -0.229670
v 0.563166 0.055506 0.000000
v 0.684679 -0.124755 0.000000
v 0.563166 -0.305016 0.000000
v 0.269808 0.055506 0.229670
v 0.269808 -0.124755 0.324802
v 0.269808 -0.305016 0.229670
v 0.269808 0.130172 -0.000000
v -0.023550 0.055506 -0.000000
v -0.145063 -0.124755 -0.000000
vn 0.000000 0.000000 -1.000000
vn 1.000000 0.000000 0.000000
vn 0.678700 -0.734400 0.000000
vn 0.000000 0.695900 -0.718100
vn 0.678700 0.734400 0.000000
vn 0.000000 0.695900 0.718100
vn 0.000000 0.000000 1.000000
vn -0.678700 0.734400 0.000000
vn 0.000000 -1.000000 0.000000
vn -0.678700 -0.734400 0.000000
vn 0.000000 -0.695900 -0.718100
vn -1.000000 0.000000 0.000000
vn 0.000000 1.000000 0.000000
vn 0.000000 -0.695900 0.718100
usemtl Shorts
s 1
f 4//1 7//2 8//3
f 4//1 3//4 6//5
f 6//5 9//6 10//7
f 8//3 7//2 10//7
f 10//7 9//6 13//8
f 2//9 1//10 5//11
f 13//8 3//4 4//1
f 1//10 14//12 4//1
f 13//8 12//13 3//4
f 3//4 12//13 6//5
f 2//9 5//11 8//3
f 6//5 12//13 9//6
f 2//9 8//3 11//14
f 2//9 11//14 1//10
f 10//7 14//12 1//10
f 9//6 12//13 13//8
f 5//11 4//1 8//3
f 7//2 4//1 6//5
f 7//2 6//5 10//7
f 11//14 8//3 10//7
f 14//12 10//7 13//8
f 14//12 13//8 4//1
f 5//11 1//10 4//1
f 11//14 10//7 1//10
