# Blender v2.78 (sub 0) OBJ File: 'Tree-1.blend'
# www.blender.org
mtllib Tree-1.mtl
g Cylinder
v 0.000000 0.011492 -0.142966
v 0.000000 0.912193 -0.142966
v 0.084033 0.011492 -0.115662
v 0.084033 0.912193 -0.115662
v 0.135969 0.011492 -0.044179
v 0.135969 0.912193 -0.044179
v 0.135969 0.011492 0.044179
v 0.135969 0.912193 0.044179
v 0.084033 0.011492 0.115662
v 0.084033 0.912193 0.115662
v -0.000000 0.011492 0.142966
v -0.000000 0.912193 0.142966
v -0.084033 0.011492 0.115662
v -0.084033 0.912193 0.115662
v -0.135969 0.011492 0.044179
v -0.135969 0.912193 0.044179
v -0.135969 0.011492 -0.044179
v -0.135969 0.912193 -0.044179
v -0.084033 0.011492 -0.115662
v -0.084033 0.912193 -0.115662
vt 0.3924 0.9999
vt 0.2943 0.0001
vt 0.3924 0.0001
vt 0.2943 0.9999
vt 0.1963 0.0001
vt 0.1963 0.9999
vt 0.0982 0.0001
vt 0.0982 0.9999
vt 0.0001 0.0001
vt 0.9809 0.9999
vt 0.8828 0.0001
vt 0.9809 0.0001
vt 0.8828 0.9999
vt 0.7847 0.0001
vt 0.7847 0.9999
vt 0.6867 0.0001
vt 0.6867 0.9999
vt 0.5886 0.0001
vt 0.4905 0.9999
vt 0.4905 0.0001
vt 0.5886 0.9999
vt 0.0001 0.9999
vn 0.3090 0.0000 -0.9511
vn 0.8090 0.0000 -0.5878
vn 1.0000 0.0000 0.0000
vn 0.8090 0.0000 0.5878
vn 0.3090 0.0000 0.9511
vn -0.3090 0.0000 0.9511
vn -0.8090 0.0000 0.5878
vn -1.0000 0.0000 0.0000
vn -0.3090 0.0000 -0.9511
vn -0.8090 0.0000 -0.5878
usemtl Caule
s off
f 2/1/1 3/2/1 1/3/1
f 4/4/2 5/5/2 3/2/2
f 6/6/3 7/7/3 5/5/3
f 8/8/4 9/9/4 7/7/4
f 10/10/5 11/11/5 9/12/5
f 12/13/6 13/14/6 11/11/6
f 14/15/7 15/16/7 13/14/7
f 16/17/8 17/18/8 15/16/8
f 20/19/9 1/3/9 19/20/9
f 18/21/10 19/20/10 17/18/10
f 2/1/1 4/4/1 3/2/1
f 4/4/2 6/6/2 5/5/2
f 6/6/3 8/8/3 7/7/3
f 8/8/4 10/22/4 9/9/4
f 10/10/5 12/13/5 11/11/5
f 12/13/6 14/15/6 13/14/6
f 14/15/7 16/17/7 15/16/7
f 16/17/8 18/21/8 17/18/8
f 20/19/9 2/1/9 1/3/9
f 18/21/10 20/19/10 19/20/10
g Cone.002
v 0.000000 2.500002 -0.571531
v 0.500000 2.500002 -0.866025
v 0.494960 2.500002 -0.285765
v 1.000000 2.500002 0.000000
v 0.494960 2.500002 0.285765
v 0.500000 2.500002 0.866025
v 0.000000 2.500002 0.571531
v 0.000000 4.500002 0.000000
v -0.500000 2.500002 0.866026
v -0.494960 2.500002 0.285766
v -1.000000 2.500002 0.000000
v -0.494960 2.500002 -0.285765
v -0.500001 2.500002 -0.866025
vt 0.0000 0.0000
vt 1.0000 0.0000
vt 1.0000 1.0000
vt 0.0000 0.0000
vt 1.0000 1.0000
vt 0.0000 0.0000
vt 1.0000 1.0000
vt 0.0000 0.0000
vt 1.0000 1.0000
vt 0.0000 0.0000
vt 1.0000 1.0000
vt 0.0000 0.0000
vt 1.0000 1.0000
vt 0.0000 0.0000
vt 1.0000 1.0000
vt 0.0000 0.0000
vt 1.0000 1.0000
vt 0.0000 0.0000
vt 1.0000 1.0000
vt 0.0000 0.0000
vt 1.0000 1.0000
vt 0.0000 0.0000
vt 1.0000 1.0000
vt 0.0000 0.0000
vt 1.0000 1.0000
vt 0.5000 1.0000
vt 0.5000 0.0000
vt 0.0670 0.2500
vt 0.7500 0.9330
vt 0.9330 0.7500
vt 1.0000 0.5000
vt 0.9330 0.2500
vt 0.7500 0.0670
vt 0.2500 0.0670
vt 0.0000 0.5000
vt 0.0670 0.7500
vt 0.2500 0.9330
vn -0.9710 0.2391 0.0084
vn -0.4928 0.2391 -0.8367
vn -0.4782 0.2391 -0.8451
vn -0.4782 0.2391 0.8451
vn -0.9710 0.2391 -0.0084
vn 0.4928 0.2391 0.8367
vn -0.4928 0.2391 0.8367
vn 0.9710 0.2391 -0.0084
vn 0.4782 0.2391 0.8451
vn 0.4782 0.2391 -0.8451
vn 0.4928 0.2391 -0.8367
vn 0.9710 0.2391 0.0084
vn 0.0000 -1.0000 0.0000
usemtl Leaf
s off
f 32/23/11 28/24/11 33/25/11
f 21/26/12 28/24/12 22/27/12
f 31/28/13 28/24/13 32/29/13
f 30/30/14 28/24/14 31/31/14
f 29/32/15 28/24/15 30/33/15
f 27/34/16 28/24/16 29/35/16
f 26/36/17 28/24/17 27/37/17
f 25/38/18 28/24/18 26/39/18
f 24/40/19 28/24/19 25/41/19
f 23/42/20 28/24/20 24/43/20
f 33/44/21 28/24/21 21/45/21
f 22/46/22 28/24/22 23/47/22
f 21/48/23 27/49/23 30/50/23
f 21/48/23 22/51/23 23/52/23
f 23/52/23 24/53/23 25/54/23
f 25/54/23 26/55/23 27/49/23
f 27/49/23 29/56/23 30/50/23
f 30/50/23 31/57/23 32/58/23
f 32/58/23 33/59/23 21/48/23
f 21/48/23 23/52/23 25/54/23
f 25/54/23 27/49/23 21/48/23
f 30/50/23 32/58/23 21/48/23
g Cone.001
v 0.000000 1.700486 -0.571531
v 0.500000 1.700486 -0.866025
v 0.494960 1.700486 -0.285765
v 1.000000 1.700486 0.000000
v 0.494960 1.700486 0.285765
v 0.500000 1.700486 0.866025
v 0.000000 1.700486 0.571531
v 0.000000 3.700486 0.000000
v -0.500000 1.700486 0.866026
v -0.494960 1.700486 0.285766
v -1.000000 1.700486 0.000000
v -0.494960 1.700486 -0.285765
v -0.500001 1.700486 -0.866025
vt 0.0000 0.0000
vt 1.0000 0.0000
vt 1.0000 1.0000
vt 0.0000 0.0000
vt 1.0000 1.0000
vt 0.0000 0.0000
vt 1.0000 1.0000
vt 0.0000 0.0000
vt 1.0000 1.0000
vt 0.0000 0.0000
vt 1.0000 1.0000
vt 0.0000 0.0000
vt 1.0000 1.0000
vt 0.0000 0.0000
vt 1.0000 1.0000
vt 0.0000 0.0000
vt 1.0000 1.0000
vt 0.0000 0.0000
vt 1.0000 1.0000
vt 0.0000 0.0000
vt 1.0000 1.0000
vt 0.0000 0.0000
vt 1.0000 1.0000
vt 0.0000 0.0000
vt 1.0000 1.0000
vt 0.5000 1.0000
vt 0.5000 0.0000
vt 0.0670 0.2500
vt 0.7500 0.9330
vt 0.9330 0.7500
vt 1.0000 0.5000
vt 0.9330 0.2500
vt 0.7500 0.0670
vt 0.2500 0.0670
vt 0.0000 0.5000
vt 0.0670 0.7500
vt 0.2500 0.9330
vn -0.9710 0.2391 0.0084
vn -0.4928 0.2391 -0.8367
vn -0.4782 0.2391 -0.8451
vn -0.4782 0.2391 0.8451
vn -0.9710 0.2391 -0.0084
vn 0.4928 0.2391 0.8367
vn -0.4928 0.2391 0.8367
vn 0.9710 0.2391 -0.0084
vn 0.4782 0.2391 0.8451
vn 0.4782 0.2391 -0.8451
vn 0.4928 0.2391 -0.8367
vn 0.9710 0.2391 0.0084
vn 0.0000 -1.0000 0.0000
usemtl Leaf
s off
f 45/60/24 41/61/24 46/62/24
f 34/63/25 41/61/25 35/64/25
f 44/65/26 41/61/26 45/66/26
f 43/67/27 41/61/27 44/68/27
f 42/69/28 41/61/28 43/70/28
f 40/71/29 41/61/29 42/72/29
f 39/73/30 41/61/30 40/74/30
f 38/75/31 41/61/31 39/76/31
f 37/77/32 41/61/32 38/78/32
f 36/79/33 41/61/33 37/80/33
f 46/81/34 41/61/34 34/82/34
f 35/83/35 41/61/35 36/84/35
f 34/85/36 40/86/36 43/87/36
f 34/85/36 35/88/36 36/89/36
f 36/89/36 37/90/36 38/91/36
f 38/91/36 39/92/36 40/86/36
f 40/86/36 42/93/36 43/87/36
f 43/87/36 44/94/36 45/95/36
f 45/95/36 46/96/36 34/85/36
f 34/85/36 36/89/36 38/91/36
f 38/91/36 40/86/36 34/85/36
f 43/87/36 45/95/36 34/85/36
g Cone
v 0.000000 0.854395 -0.571531
v 0.500000 0.854395 -0.866025
v 0.494960 0.854395 -0.285765
v 1.000000 0.854395 0.000000
v 0.494960 0.854395 0.285765
v 0.500000 0.854395 0.866025
v 0.000000 0.854395 0.571531
v 0.000000 2.854395 0.000000
v -0.500000 0.854395 0.866026
v -0.494960 0.854395 0.285766
v -1.000000 0.854395 0.000000
v -0.494960 0.854395 -0.285765
v -0.500001 0.854395 -0.866025
vt 0.0000 0.0000
vt 1.0000 0.0000
vt 1.0000 1.0000
vt 0.0000 0.0000
vt 1.0000 1.0000
vt 0.0000 0.0000
vt 1.0000 1.0000
vt 0.0000 0.0000
vt 1.0000 1.0000
vt 0.0000 0.0000
vt 1.0000 1.0000
vt 0.0000 0.0000
vt 1.0000 1.0000
vt 0.0000 0.0000
vt 1.0000 1.0000
vt 0.0000 0.0000
vt 1.0000 1.0000
vt 0.0000 0.0000
vt 1.0000 1.0000
vt 0.0000 0.0000
vt 1.0000 1.0000
vt 0.0000 0.0000
vt 1.0000 1.0000
vt 0.0000 0.0000
vt 1.0000 1.0000
vt 0.5000 1.0000
vt 0.5000 0.0000
vt 0.0670 0.2500
vt 0.7500 0.9330
vt 0.9330 0.7500
vt 1.0000 0.5000
vt 0.9330 0.2500
vt 0.7500 0.0670
vt 0.2500 0.0670
vt 0.0000 0.5000
vt 0.0670 0.7500
vt 0.2500 0.9330
vn -0.9710 0.2391 0.0084
vn -0.4928 0.2391 -0.8367
vn -0.4782 0.2391 -0.8451
vn -0.4782 0.2391 0.8451
vn -0.9710 0.2391 -0.0084
vn 0.4928 0.2391 0.8367
vn -0.4928 0.2391 0.8367
vn 0.9710 0.2391 -0.0084
vn 0.4782 0.2391 0.8451
vn 0.4782 0.2391 -0.8451
vn 0.4928 0.2391 -0.8367
vn 0.9710 0.2391 0.0084
vn 0.0000 -1.0000 0.0000
usemtl Leaf
s off
f 58/97/37 54/98/37 59/99/37
f 47/100/38 54/98/38 48/101/38
f 57/102/39 54/98/39 58/103/39
f 56/104/40 54/98/40 57/105/40
f 55/106/41 54/98/41 56/107/41
f 53/108/42 54/98/42 55/109/42
f 52/110/43 54/98/43 53/111/43
f 51/112/44 54/98/44 52/113/44
f 50/114/45 54/98/45 51/115/45
f 49/116/46 54/98/46 50/117/46
f 59/118/47 54/98/47 47/119/47
f 48/120/48 54/98/48 49/121/48
f 47/122/49 53/123/49 56/124/49
f 47/122/49 48/125/49 49/126/49
f 49/126/49 50/127/49 51/128/49
f 51/128/49 52/129/49 53/123/49
f 53/123/49 55/130/49 56/124/49
f 56/124/49 57/131/49 58/132/49
f 58/132/49 59/133/49 47/122/49
f 47/122/49 49/126/49 51/128/49
f 51/128/49 53/123/49 47/122/49
f 56/124/49 58/132/49 47/122/49
