# Blender v2.76 (sub 0) OBJ File: ''
# www.blender.org
mtllib fogareira.mtl
g Cylinder
v -1.000000 -0.000000 -1.000000
v 1.000000 0.000000 -1.000000
v -1.000000 -0.707107 -0.707107
v 1.000000 -0.707107 -0.707107
v -1.000000 -1.000000 0.000000
v 1.000000 -1.000000 0.000000
v -1.000000 -0.707107 0.707107
v 1.000000 -0.707107 0.707107
v -1.000000 0.000000 1.000000
v 1.000000 0.000000 1.000000
v 1.000000 0.000000 0.000000
v -1.000000 -0.000000 0.000000
v 1.000000 0.245307 -1.000000
v 1.000000 0.000000 -0.707107
v -1.000000 -0.000000 -0.707107
v -1.000000 0.245307 -1.000000
v -1.000000 -0.000000 0.707107
v 1.000000 0.000000 0.707107
v -1.000000 0.245307 1.000000
v 1.000000 0.245307 1.000000
v -0.826847 -0.000000 -1.000000
v 0.826847 0.000000 -1.000000
v 0.826847 -0.707107 -0.707107
v -0.826847 -0.707107 -0.707107
v 0.826847 -1.000000 0.000000
v -0.826847 -1.000000 0.000000
v 0.826847 -0.707107 0.707107
v -0.826847 -0.707107 0.707107
v 0.826847 0.000000 1.000000
v -0.826847 0.000000 1.000000
v 0.826847 -0.461800 0.707107
v -0.826847 -0.461800 0.707107
v 0.826847 -0.754693 0.000000
v -0.826847 -0.754693 0.000000
v 0.826847 -0.461800 -0.707107
v -0.826847 -0.461800 -0.707107
v -0.826847 0.245307 -1.000000
v 0.826847 0.245307 -1.000000
v 0.826847 0.245307 1.000000
v -0.826847 0.245307 1.000000
vn 0.000000 -0.382700 -0.923900
vn 0.000000 -0.923900 -0.382700
vn 0.000000 -0.923900 0.382700
vn 0.000000 -0.382700 0.923900
vn -1.000000 0.000000 0.000000
vn -0.000000 0.766600 -0.642100
vn -0.936300 0.351100 0.000000
vn -0.714300 0.267800 0.646600
vn -0.970500 0.222700 0.092200
vn 1.000000 0.000000 0.000000
vn 0.000000 0.000000 1.000000
vn 0.000000 0.000000 -1.000000
vn 0.970500 0.222700 0.092200
vn -0.000000 0.923900 0.382700
vn 0.714300 0.267800 0.646600
vn 0.000000 0.382700 0.923900
vn 0.936300 0.351100 0.000000
vn -0.000000 0.923900 -0.382700
vn 0.000000 0.382700 -0.923900
vn -0.714300 0.267800 -0.646600
vn -0.970500 0.222700 -0.092200
vn -0.000000 0.766600 0.642100
vn 0.970500 0.222700 -0.092200
vn 0.714300 0.267800 -0.646600
usemtl None
s off
f 2//1 4//1 23//1
f 4//2 6//2 25//2
f 6//3 8//3 27//3
f 8//4 10//4 29//4
f 12//5 15//5 3//5
f 39//6 20//6 18//6
f 31//7 18//7 11//7
f 38//8 35//8 14//8
f 35//9 33//9 11//9
f 18//10 20//10 10//10
f 2//10 13//10 14//10
f 11//10 18//10 8//10
f 4//10 14//10 11//10
f 30//11 40//11 19//11
f 38//12 13//12 2//12
f 9//5 19//5 17//5
f 15//5 16//5 1//5
f 7//5 17//5 12//5
f 16//12 37//12 21//12
f 37//12 38//12 22//12
f 10//11 20//11 39//11
f 39//11 40//11 30//11
f 12//13 34//13 36//13
f 34//14 33//14 35//14
f 15//15 36//15 37//15
f 36//16 35//16 38//16
f 12//17 17//17 32//17
f 32//18 31//18 33//18
f 17//6 19//6 40//6
f 32//19 40//19 39//19
f 28//4 30//4 9//4
f 28//4 27//4 29//4
f 5//3 26//3 28//3
f 26//3 25//3 27//3
f 24//2 26//2 5//2
f 23//2 25//2 26//2
f 21//1 24//1 3//1
f 22//1 23//1 24//1
f 22//1 2//1 23//1
f 23//2 4//2 25//2
f 25//3 6//3 27//3
f 27//4 8//4 29//4
f 5//5 12//5 3//5
f 31//20 39//20 18//20
f 33//21 31//21 11//21
f 13//22 38//22 14//22
f 14//7 35//7 11//7
f 8//10 18//10 10//10
f 4//10 2//10 14//10
f 6//10 11//10 8//10
f 6//10 4//10 11//10
f 9//11 30//11 19//11
f 22//12 38//12 2//12
f 7//5 9//5 17//5
f 3//5 15//5 1//5
f 5//5 7//5 12//5
f 1//12 16//12 21//12
f 21//12 37//12 22//12
f 29//11 10//11 39//11
f 29//11 39//11 30//11
f 15//17 12//17 36//17
f 36//14 34//14 35//14
f 16//22 15//22 37//22
f 37//16 36//16 38//16
f 34//23 12//23 32//23
f 34//18 32//18 33//18
f 32//24 17//24 40//24
f 31//19 32//19 39//19
f 7//4 28//4 9//4
f 30//4 28//4 29//4
f 7//3 5//3 28//3
f 28//3 26//3 27//3
f 3//2 24//2 5//2
f 24//2 23//2 26//2
f 1//1 21//1 3//1
f 21//1 22//1 24//1
