# Blender v2.76 (sub 0) OBJ File: ''
# www.blender.org
mtllib t3obj.mtl
g Circle.001
v 0.263960 1.686271 0.322671
v 0.353030 1.550779 0.431551
v 0.426145 1.550779 0.215776
v 0.000000 1.686271 0.456325
v -0.263960 1.686271 0.322671
v -0.353030 1.550779 0.431552
v -0.263960 1.686271 -0.322671
v -0.353030 1.550779 -0.431552
v -0.499260 1.550779 0.000000
v 0.318628 1.686271 0.161335
v 0.300939 1.680205 0.161335
v 0.355607 1.680205 0.000000
v 0.000000 1.550779 0.610306
v -0.373296 1.686271 0.000000
v 0.000000 1.686271 -0.456325
v 0.000000 1.550779 -0.610306
v 0.263960 1.686271 -0.322671
v 0.353030 1.550779 -0.431551
v 0.318628 1.686271 -0.161335
v 0.598058 0.401875 -0.302823
v 0.580369 0.395810 -0.302823
v 0.682979 0.395810 0.000000
v 0.000000 1.339725 0.678136
v 0.392266 1.339725 0.479514
v -0.554747 1.339725 0.000000
v 0.000000 1.339725 -0.678136
v -0.392266 1.339725 -0.479514
v 0.392266 1.339725 -0.479514
v 0.473506 1.339725 0.239757
v -0.392266 1.339725 0.479514
v -0.465625 0.896975 0.569190
v -0.465625 0.896975 -0.569190
v -0.658493 0.896975 0.000000
v 0.562059 0.896975 -0.284595
v 0.473506 1.339725 -0.239757
v 0.455817 1.333660 -0.239757
v 0.000000 0.896975 0.804957
v 0.465625 0.896975 0.569190
v 0.000000 0.896975 -0.804957
v 0.465625 0.896975 -0.569190
v 0.430403 1.348661 0.479514
v 0.495448 0.401875 -0.605646
v 0.495448 0.401875 0.605646
v 0.598058 0.401875 0.302823
v -0.495448 0.401875 0.605646
v -0.495448 0.401875 -0.605646
v -0.700669 0.401875 0.000000
v 0.455817 1.333660 0.239757
v 0.408455 1.544714 0.215776
v 0.000000 0.401875 0.856513
v 0.000000 0.401875 -0.856513
v 0.544370 0.890910 -0.284595
v 0.562059 0.896975 0.284595
v 0.544370 0.890910 0.284595
v 0.300939 1.680205 -0.161335
v 0.408455 1.544714 -0.215776
v 0.373296 1.686271 0.000000
v 0.430403 1.348661 -0.479514
v 0.503762 0.905911 -0.569190
v 0.426145 1.550779 -0.215776
v 0.503762 0.905911 0.569190
v 0.600196 0.905911 0.284595
v 0.511644 1.348661 -0.239757
v 0.600196 0.905911 -0.284595
v 0.511644 1.348661 0.239757
v 0.700669 0.401875 0.000000
v 0.580369 0.395810 0.302823
v 0.481570 1.544714 0.000000
v 0.537058 1.333660 0.000000
v 0.640804 0.890910 0.000000
v 0.000000 0.181446 0.765329
v -0.626076 0.181446 0.000000
v -0.442702 0.181446 0.541169
v 0.000000 0.181446 -0.765329
v 0.442703 0.181446 -0.541169
v 0.442703 0.181446 0.541169
v -0.442702 0.181446 -0.541169
v 0.626076 0.181446 0.000000
v 0.534389 0.181446 -0.270585
v 0.458979 0.069955 0.000000
v 0.000000 0.069955 0.561066
v -0.458979 0.069955 0.000000
v -0.324547 0.069955 0.396733
v 0.000000 0.069955 -0.561066
v 0.324547 0.069955 -0.396733
v 0.534389 0.181446 0.270585
v 0.324547 0.069955 0.396733
v -0.324547 0.069955 -0.396733
v 0.391763 0.069955 0.198367
v 0.197455 0.025565 0.241373
v -0.197455 0.025565 0.241373
v 0.000000 0.025565 0.341353
v -0.197455 0.025565 -0.241373
v 0.391763 0.069955 -0.198367
v 0.279243 0.025565 0.000000
v -0.279243 0.025565 0.000000
v 0.000000 0.025565 -0.341353
v 0.197455 0.025565 -0.241373
v 0.238349 0.025565 0.120686
v 0.238349 0.025565 -0.120686
vt 0.775965 0.931557
vt 0.757667 0.885395
vt 0.822083 0.890312
vt 0.696930 0.498731
vt 0.638747 0.564554
vt 0.600163 0.542861
vt 0.270237 0.000000
vt 0.291362 0.044659
vt 0.162223 0.044659
vt 0.290798 0.890487
vt 0.295926 0.890487
vt 0.280476 0.941089
vt 0.677979 0.454826
vt 0.788028 0.473099
vt 0.638747 0.671305
vt 0.600163 0.685633
vt 0.779214 0.770112
vt 0.788028 0.817781
vt 0.677979 0.799509
vt 0.459970 0.457130
vt 0.540810 0.454826
vt 0.560534 0.495971
vt 0.808305 0.554966
vt 0.837397 0.650913
vt 0.906434 0.189960
vt 0.901230 0.189960
vt 0.930028 0.094980
vt 0.137300 0.905772
vt 0.141198 0.839277
vt 0.239127 0.840773
vt 0.059684 0.039462
vt 0.157176 0.111724
vt 0.452416 0.499052
vt 0.450402 0.564966
vt 0.352789 0.569802
vt 0.570536 0.561543
vt 0.752553 0.817781
vt 0.824129 0.823245
vt 0.029236 0.906040
vt 0.021123 0.839574
vt 0.300667 0.111724
vt 0.005982 0.700205
vt 0.318066 0.252187
vt 0.147740 0.252186
vt 0.878454 0.254993
vt 0.876544 0.114304
vt 0.881699 0.115162
vt 0.148512 0.699852
vt 0.264755 0.701629
vt 0.043242 0.105948
vt 0.447054 0.703296
vt 0.331187 0.709036
vt 0.589655 0.699232
vt 0.670876 0.439218
vt 0.670877 0.359898
vt 0.681358 0.363790
vt 0.600163 0.853978
vt 0.865653 0.348915
vt 0.725081 0.359898
vt 0.723244 0.259634
vt 0.000000 0.544726
vt 0.325139 0.407945
vt 0.143904 0.407945
vt 0.286246 0.772432
vt 0.291426 0.771805
vt 0.291856 0.839985
vt 0.151659 0.544350
vt 0.275348 0.546240
vt 0.012498 0.245331
vt 0.448428 0.858302
vt 0.325139 0.864410
vt 0.896076 0.409235
vt 0.883608 0.255851
vt 0.288561 0.630257
vt 0.293740 0.629630
vt 0.896076 0.000000
vt 0.901230 0.000858
vt 0.882054 0.047845
vt 0.290798 0.991692
vt 0.275348 0.941089
vt 0.865653 0.010680
vt 0.863927 0.085569
vt 0.723244 0.079685
vt 0.581044 0.558340
vt 0.600163 0.696030
vt 0.837397 0.931239
vt 0.886550 0.914899
vt 0.896396 0.981844
vt 0.859644 0.876656
vt 0.896396 0.864438
vt 0.613574 0.958779
vt 0.600163 0.817781
vt 0.685284 0.820736
vt 0.695882 0.824822
vt 0.752553 0.959459
vt 0.660394 0.363790
vt 0.295926 0.894373
vt 0.306317 0.890487
vt 0.306317 0.984708
vt 0.275348 0.704489
vt 0.824129 0.912002
vt 0.824129 0.817781
vt 0.834520 0.821667
vt 0.867563 0.254419
vt 0.275348 0.772521
vt 0.277663 0.630346
vt 0.309924 0.890487
vt 0.286677 0.840613
vt 0.906434 0.000000
vt 0.935233 0.094980
vt 0.876899 0.046987
vt 0.309924 0.476260
vt 0.315103 0.475633
vt 0.824129 0.935234
vt 0.173680 0.000000
vt 0.779214 0.512393
vt 0.696930 0.756450
vt 0.837397 0.597538
vt 0.837397 0.704289
vt 0.225434 0.907119
vt 0.364567 0.503405
vt 0.681358 0.443110
vt 0.863927 0.254686
vt 0.000000 0.400651
vt 0.901230 0.410093
vt 0.295926 0.991692
vt 0.725081 0.000000
vt 0.841780 1.000000
vt 0.685284 0.961268
vt 0.685284 0.967817
vt 0.660395 0.443110
vt 0.295926 0.988593
vt 0.249720 0.843634
vt 0.834520 0.915887
vt 0.865653 0.113729
vt 0.315103 0.889859
vt 0.901230 0.000000
vt 0.905698 0.863355
vt 0.916334 0.818448
vt 0.967641 0.819897
vt 0.920152 0.751285
vt 0.977160 0.752894
vt 0.927013 0.610639
vt 0.994683 0.612549
vt 0.927996 0.454826
vt 1.000000 0.456859
vt 0.841868 0.612549
vt 0.837397 0.456859
vt 0.848421 0.752894
vt 0.851778 0.819897
vt 0.857429 0.864438
vt 0.944059 0.864438
vt 0.146697 0.475633
vt 0.150688 0.475633
vt 0.022105 0.469115
vt 0.455511 0.927720
vt 0.591092 0.923857
vt 0.663677 0.347428
vt 0.011184 0.475968
vt 0.312630 0.475633
vt 0.721407 0.159370
vt 0.660394 0.168249
vt 0.325140 0.254314
vt 0.325140 0.164731
vt 0.372128 0.182302
vt 0.423333 0.022285
vt 0.562201 0.000000
vt 0.545918 0.061537
vt 0.660394 0.290095
vt 0.617904 0.274206
vt 0.617904 0.142860
vt 0.562200 0.432541
vt 0.423333 0.454826
vt 0.444114 0.394972
vt 0.325139 0.343896
vt 0.372128 0.313648
vt 0.374237 0.093508
vt 0.444114 0.077874
vt 0.660394 0.110930
vt 0.545918 0.378634
vt 0.408121 0.130088
vt 0.464943 0.137097
vt 0.570677 0.176635
vt 0.526880 0.127158
vt 0.526880 0.320080
vt 0.372128 0.247975
vt 0.421146 0.200632
vt 0.570677 0.256546
vt 0.464943 0.330020
vt 0.421146 0.280543
vt 0.443044 0.168865
vt 0.662036 0.257839
vt 0.421146 0.240587
vt 0.662036 0.097047
vt 0.663677 0.025845
vt 0.257218 0.477322
vt 0.345348 0.933178
vn 0.353900 0.891400 0.283200
vn 0.658900 0.488500 0.572000
vn 0.812200 0.276400 -0.513700
vn 0.000000 0.899100 0.437700
vn -0.353900 0.891400 0.283200
vn -0.658900 0.488500 0.572000
vn -0.353900 0.891400 -0.283200
vn -0.658900 0.488500 -0.572000
vn -0.886800 0.462100 0.000000
vn 0.648900 0.625200 -0.433600
vn 0.908400 -0.243200 -0.340100
vn 0.955000 -0.296500 0.000000
vn 0.000000 0.515400 0.857000
vn -0.464400 0.885600 0.000000
vn 0.000000 0.899100 -0.437700
vn 0.000000 0.515400 -0.857000
vn 0.353900 0.891400 -0.283200
vn 0.658900 0.488500 -0.572000
vn 0.648900 0.625200 0.433600
vn 0.963700 0.223900 0.145700
vn 0.564000 0.660000 0.496300
vn 0.410500 0.911900 0.000000
vn -0.000000 0.289400 0.957200
vn 0.395700 0.460000 0.794800
vn -0.970600 0.240600 0.000000
vn -0.000000 0.289400 -0.957200
vn -0.729600 0.262900 -0.631300
vn 0.395700 0.460000 -0.794800
vn 0.246100 0.363200 -0.898600
vn -0.729600 0.262900 0.631300
vn -0.743100 0.169100 0.647500
vn -0.743100 0.169100 -0.647500
vn -0.988000 0.154700 -0.000000
vn 0.414600 -0.426200 0.804000
vn 0.246100 0.363200 0.898600
vn 0.805900 0.108600 0.582100
vn -0.000000 0.185700 0.982600
vn 0.544000 -0.047900 0.837700
vn -0.000000 0.185700 -0.982600
vn 0.544000 -0.047900 -0.837700
vn 0.327800 0.756200 0.566400
vn 0.744300 -0.125000 -0.656000
vn 0.744300 -0.125000 0.656000
vn 0.963700 0.223900 -0.145700
vn -0.744300 -0.125000 0.656000
vn -0.744300 -0.125000 -0.656000
vn -0.993300 -0.115700 -0.000000
vn 0.805900 0.108600 -0.582100
vn 0.719500 0.160400 -0.675800
vn 0.000000 -0.134600 0.990900
vn 0.000000 -0.134600 -0.990900
vn 0.794300 0.069000 0.603700
vn 0.414600 -0.426200 -0.804000
vn 0.794300 0.069000 -0.603700
vn 0.908400 -0.243200 0.340100
vn 0.719500 0.160400 0.675800
vn 0.990300 0.139000 0.000000
vn 0.327800 0.756200 -0.566400
vn 0.557200 -0.400100 -0.727600
vn 0.812200 0.276400 0.513700
vn 0.557200 -0.400100 0.727600
vn 0.783600 -0.445100 -0.433500
vn 0.544000 0.649900 0.530700
vn 0.783600 -0.445100 0.433500
vn 0.544000 0.649900 -0.530700
vn 0.778600 0.627600 0.000000
vn 0.564000 0.660000 -0.496300
vn 0.886800 0.462200 0.000000
vn 0.970600 0.240600 0.000000
vn 0.988000 0.154700 0.000000
vn -0.000000 -0.623500 0.781800
vn -0.815600 -0.578600 -0.000000
vn -0.605600 -0.601100 0.521400
vn -0.000000 -0.623500 -0.781800
vn 0.605600 -0.601100 -0.521400
vn 0.605600 -0.601100 0.521400
vn -0.605600 -0.601100 -0.521400
vn 0.815600 -0.578600 0.000000
vn 0.763300 -0.592100 -0.258600
vn 0.432500 -0.901600 -0.000000
vn -0.000000 -0.924800 0.380400
vn -0.432500 -0.901600 -0.000000
vn -0.317600 -0.912700 0.257200
vn -0.000000 -0.924800 -0.380400
vn 0.317600 -0.912700 -0.257200
vn 0.763300 -0.592100 0.258600
vn 0.317600 -0.912700 0.257200
vn -0.317600 -0.912700 -0.257200
vn 0.398600 -0.907100 0.135100
vn 0.110000 -0.990400 0.084100
vn -0.110000 -0.990400 0.084100
vn 0.000000 -0.991700 0.128700
vn -0.110000 -0.990400 -0.084100
vn 0.398600 -0.907100 -0.135100
vn 0.145400 -0.989400 -0.000000
vn -0.145400 -0.989400 -0.000000
vn 0.000000 -0.991700 -0.128700
vn 0.110000 -0.990400 -0.084100
vn 0.120500 -0.991900 0.040800
vn 0.120500 -0.991900 -0.040800
usemtl Blusa
s 1
f 1/1/1 2/2/2 3/3/3
f 4/4/4 5/5/5 6/6/6
f 7/7/7 8/8/8 9/9/9
f 10/10/10 11/11/11 12/12/12
f 4/4/4 13/13/13 2/14/2
f 5/5/5 14/15/14 9/16/9
f 15/17/15 16/18/16 8/19/8
f 15/20/15 17/21/17 18/22/18
f 10/23/10 19/24/19 14/15/14
f 20/25/20 21/26/21 22/27/22
f 13/28/13 23/29/23 24/30/24
f 6/31/6 9/9/9 25/32/25
f 16/33/16 26/34/26 27/35/27
f 16/33/16 18/22/18 28/36/28
f 2/2/2 24/37/24 29/38/29
f 13/28/13 6/39/6 30/40/30
f 8/8/8 27/41/27 25/32/25
f 23/29/23 30/40/30 31/42/31
f 27/41/27 32/43/32 33/44/33
f 34/45/34 35/46/35 36/47/36
f 23/29/23 37/48/37 38/49/38
f 30/50/30 25/32/25 33/44/33
f 26/34/26 39/51/39 32/52/32
f 26/34/26 28/36/28 40/53/40
f 29/54/29 24/55/24 41/56/41
f 39/51/39 40/53/40 42/57/42
f 38/58/38 43/59/43 44/60/44
f 37/48/37 31/42/31 45/61/45
f 32/43/32 46/62/46 47/63/47
f 29/64/29 48/65/48 49/66/49
f 37/48/37 50/67/50 43/68/43
f 31/69/31 33/44/33 47/63/47
f 39/51/39 51/70/51 46/71/46
f 20/72/20 34/45/34 52/73/52
f 53/74/53 54/75/54 48/65/48
f 19/76/19 55/77/55 56/78/56
f 19/79/19 57/80/57 12/12/12
f 40/81/40 34/82/34 20/83/20
f 28/36/28 58/84/58 59/85/59
f 18/86/18 60/87/60 35/88/35
f 17/89/17 19/90/19 60/87/60
f 41/91/41 61/92/61 62/93/62
f 58/94/58 63/37/63 64/95/64
f 35/96/35 63/55/63 58/54/58
f 53/97/53 62/98/62 61/99/61
f 24/30/24 38/49/38 61/100/61
f 34/101/34 40/102/40 59/103/59
f 35/46/35 34/45/34 64/104/64
f 29/64/29 65/105/65 62/106/62
f 10/107/10 3/108/3 49/66/49
f 44/109/44 66/110/66 22/27/22
f 35/46/35 60/111/60 56/78/56
f 44/112/44 67/113/67 54/75/54
f 10/114/10 1/1/1 3/3/3
f 13/13/13 4/4/4 6/6/6
f 14/115/14 7/7/7 9/9/9
f 57/80/57 10/10/10 12/12/12
f 1/116/1 4/4/4 2/14/2
f 6/6/6 5/5/5 9/16/9
f 7/117/7 15/17/15 8/19/8
f 16/33/16 15/20/15 18/22/18
f 15/17/15 7/117/7 19/24/19
f 14/15/14 5/5/5 10/23/10
f 4/4/4 1/116/1 10/23/10
f 10/23/10 57/118/57 19/24/19
f 19/24/19 17/119/17 15/17/15
f 7/117/7 14/15/14 19/24/19
f 4/4/4 10/23/10 5/5/5
f 66/110/66 20/25/20 22/27/22
f 2/120/2 13/28/13 24/30/24
f 30/50/30 6/31/6 25/32/25
f 8/121/8 16/33/16 27/35/27
f 26/34/26 16/33/16 28/36/28
f 3/3/3 2/2/2 29/38/29
f 23/29/23 13/28/13 30/40/30
f 9/9/9 8/8/8 25/32/25
f 37/48/37 23/29/23 31/42/31
f 25/32/25 27/41/27 33/44/33
f 52/73/52 34/45/34 36/47/36
f 24/30/24 23/29/23 38/49/38
f 31/69/31 30/50/30 33/44/33
f 27/35/27 26/34/26 32/52/32
f 39/51/39 26/34/26 40/53/40
f 65/122/65 29/54/29 41/56/41
f 51/70/51 39/51/39 42/57/42
f 53/123/53 38/58/38 44/60/44
f 50/67/50 37/48/37 45/61/45
f 33/44/33 32/43/32 47/63/47
f 3/108/3 29/64/29 49/66/49
f 38/49/38 37/48/37 43/68/43
f 45/124/45 31/69/31 47/63/47
f 32/52/32 39/51/39 46/71/46
f 21/125/21 20/72/20 52/73/52
f 29/64/29 53/74/53 48/65/48
f 60/111/60 19/76/19 56/78/56
f 55/126/55 19/79/19 12/12/12
f 42/127/42 40/81/40 20/83/20
f 40/53/40 28/36/28 59/85/59
f 28/128/28 18/86/18 35/88/35
f 18/86/18 17/89/17 60/87/60
f 65/129/65 41/91/41 62/93/62
f 59/130/59 58/94/58 64/95/64
f 28/131/28 35/96/35 58/54/58
f 38/132/38 53/97/53 61/99/61
f 41/133/41 24/30/24 61/100/61
f 64/134/64 34/101/34 59/103/59
f 63/135/63 35/46/35 64/104/64
f 53/74/53 29/64/29 62/106/62
f 11/136/11 10/107/10 49/66/49
f 67/137/67 44/109/44 22/27/22
f 36/47/36 35/46/35 56/78/56
f 53/74/53 44/112/44 54/75/54
f 12/138/12 68/139/68 56/140/56
f 68/139/68 69/141/69 36/142/36
f 69/141/69 70/143/70 52/144/52
f 70/143/70 22/145/22 21/146/21
f 70/143/70 54/147/54 67/148/67
f 69/141/69 48/149/48 54/147/54
f 68/139/68 49/150/49 48/149/48
f 12/138/12 11/151/11 49/150/49
f 55/152/55 12/138/12 56/140/56
f 56/140/56 68/139/68 36/142/36
f 36/142/36 69/141/69 52/144/52
f 52/144/52 70/143/70 21/146/21
f 22/145/22 70/143/70 67/148/67
f 70/143/70 69/141/69 54/147/54
f 69/141/69 68/139/68 48/149/48
f 68/139/68 12/138/12 49/150/49
f 43/68/43 50/67/50 71/153/71
f 47/63/47 72/154/72 73/155/73
f 46/71/46 51/70/51 74/156/74
f 42/57/42 75/157/75 74/156/74
f 44/60/44 43/59/43 76/158/76
f 45/61/45 73/159/73 71/153/71
f 47/63/47 46/62/46 77/160/77
f 20/83/20 66/161/66 78/162/78
f 79/163/79 78/164/78 80/165/80
f 76/166/76 71/167/71 81/168/81
f 72/169/72 82/170/82 83/171/83
f 77/172/77 74/173/74 84/174/84
f 75/175/75 85/176/85 84/174/84
f 86/177/86 76/166/76 87/178/87
f 73/179/73 83/171/83 81/168/81
f 72/169/72 77/172/77 88/180/88
f 89/181/89 87/178/87 90/182/90
f 83/171/83 91/183/91 92/184/92
f 82/170/82 88/180/88 93/185/93
f 94/186/94 80/165/80 95/187/95
f 87/178/87 81/168/81 92/184/92
f 82/170/82 96/188/96 91/183/91
f 88/180/88 84/174/84 97/189/97
f 85/176/85 98/190/98 97/189/97
f 99/191/99 91/183/91 96/188/96
f 89/181/89 99/191/99 95/187/95
f 86/177/86 89/181/89 80/165/80
f 44/60/44 86/192/86 78/162/78
f 94/186/94 100/193/100 98/190/98
f 79/163/79 94/186/94 85/176/85
f 20/83/20 79/194/79 75/195/75
f 76/196/76 43/68/43 71/153/71
f 45/124/45 47/63/47 73/155/73
f 77/197/77 46/71/46 74/156/74
f 51/70/51 42/57/42 74/156/74
f 86/192/86 44/60/44 76/158/76
f 50/67/50 45/61/45 71/153/71
f 72/154/72 47/63/47 77/160/77
f 79/194/79 20/83/20 78/162/78
f 94/186/94 79/163/79 80/165/80
f 87/178/87 76/166/76 81/168/81
f 73/179/73 72/169/72 83/171/83
f 88/180/88 77/172/77 84/174/84
f 74/173/74 75/175/75 84/174/84
f 89/181/89 86/177/86 87/178/87
f 71/167/71 73/179/73 81/168/81
f 82/170/82 72/169/72 88/180/88
f 99/191/99 89/181/89 90/182/90
f 81/168/81 83/171/83 92/184/92
f 96/188/96 82/170/82 93/185/93
f 100/193/100 94/186/94 95/187/95
f 90/182/90 87/178/87 92/184/92
f 83/171/83 82/170/82 91/183/91
f 93/185/93 88/180/88 97/189/97
f 84/174/84 85/176/85 97/189/97
f 96/188/96 93/185/93 100/193/100
f 97/189/97 98/190/98 100/193/100
f 100/193/100 95/187/95 99/191/99
f 99/191/99 90/182/90 92/184/92
f 92/184/92 91/183/91 99/191/99
f 93/185/93 97/189/97 100/193/100
f 100/193/100 99/191/99 96/188/96
f 80/165/80 89/181/89 95/187/95
f 78/164/78 86/177/86 80/165/80
f 66/161/66 44/60/44 78/162/78
f 85/176/85 94/186/94 98/190/98
f 75/175/75 79/163/79 85/176/85
f 42/127/42 20/83/20 75/195/75
